<svg width="117" height="92" viewBox="0 0 117 92" fill="none" xmlns="http://www.w3.org/2000/svg">
<path d="M116.992 0V2.56C115.371 2.90133 113.579 3.88267 111.616 5.504C109.653 7.04 108.075 9.77067 106.88 13.696L82.688 91.264C82.5173 91.264 82.3467 91.264 82.176 91.264C82.0053 91.264 81.8347 91.264 81.664 91.264C81.4933 91.264 81.3227 91.264 81.152 91.264C80.9813 91.264 80.8107 91.264 80.64 91.264L53.504 10.752C52.3947 7.424 51.1573 5.248 49.792 4.224C48.4267 3.2 47.1467 2.64533 45.952 2.56V0C47.488 0.0853322 49.408 0.170664 51.712 0.255997C54.016 0.341329 56.2347 0.383995 58.368 0.383995C61.696 0.383995 64.8107 0.341329 67.712 0.255997C70.6133 0.170664 72.96 0.0853322 74.752 0V2.56C72.192 2.64533 70.144 2.90133 68.608 3.328C67.1573 3.75466 66.304 4.69333 66.048 6.144C65.8773 7.59467 66.304 9.984 67.328 13.312L86.4 72.32L84.608 73.856L101.504 20.736C103.04 16.0427 103.723 12.416 103.552 9.856C103.467 7.21066 102.528 5.37599 100.736 4.352C98.944 3.24266 96.256 2.64533 92.672 2.56V0C95.1467 0.0853322 97.664 0.170664 100.224 0.255997C102.784 0.341329 105.173 0.383995 107.392 0.383995C109.611 0.383995 111.445 0.341329 112.896 0.255997C114.347 0.170664 115.712 0.0853322 116.992 0ZM27.52 0V2.56C25.3013 2.73066 23.68 3.15733 22.656 3.84C21.7173 4.52266 21.248 5.632 21.248 7.168C21.3333 8.61866 21.8027 10.6667 22.656 13.312L42.496 73.856L39.296 77.056L57.216 19.84L59.136 22.912L38.016 91.264C37.8453 91.264 37.6747 91.264 37.504 91.264C37.3333 91.264 37.1627 91.264 36.992 91.264C36.8213 91.264 36.6507 91.264 36.48 91.264C36.3093 91.264 36.1387 91.264 35.968 91.264L8.832 10.752C7.72267 7.424 6.31467 5.248 4.608 4.224C2.90133 3.2 1.36533 2.64533 0 2.56V0C1.70667 0.0853322 3.79733 0.170664 6.272 0.255997C8.832 0.341329 11.3067 0.383995 13.696 0.383995C16.512 0.383995 19.1147 0.341329 21.504 0.255997C23.9787 0.170664 25.984 0.0853322 27.52 0Z" fill="white"/>
</svg>
