<?xml version="1.0" encoding="UTF-8"?>
<!DOCTYPE svg PUBLIC "-//W3C//DTD SVG 1.1//EN" "http://www.w3.org/Graphics/SVG/1.1/DTD/svg11.dtd">
<!-- Creator: CorelDRAW 2021.5 -->
<svg xmlns="http://www.w3.org/2000/svg" xml:space="preserve" width="90mm" height="74.8438mm" version="1.1" style="shape-rendering:geometricPrecision; text-rendering:geometricPrecision; image-rendering:optimizeQuality; fill-rule:evenodd; clip-rule:evenodd"
viewBox="0 0 8998.92 7483.48"
 xmlns:xlink="http://www.w3.org/1999/xlink"
 xmlns:xodm="http://www.corel.com/coreldraw/odm/2003">
 <defs>
  <style type="text/css">
   <![CDATA[
    .fil1 {fill:black}
    .fil0 {fill:black;fill-rule:nonzero}
   ]]>
  </style>
 </defs>
 <g id="Layer_x0020_1">
  <metadata id="CorelCorpID_0Corel-Layer"/>
  <g id="_1772742513008">
   <path class="fil0" d="M4796.67 6249.5c119.05,-68.74 265.26,-80.69 394.25,-27.79 159.22,65.31 297.59,215.99 446.31,318.79 -78.24,-25.83 -157.93,-81.95 -225.9,-138.27 -76.59,-63.48 -146.89,-121.75 -260.94,-86.03 -86.19,26.97 -137.55,154.99 -55.36,207.06 11.04,7.01 23.56,11.45 36.26,13.1 63.63,8.27 108.24,-65.31 73.25,-106.72 -26.75,-31.63 -85.91,-11.79 -99.22,18.53 -1.19,-33.39 29.37,-72.67 60.52,-82.41 112.95,-35.39 184.23,60.85 274.61,125.57 60.74,43.52 128.5,83.47 192.39,102.11 -60.53,52.65 -33.57,131.39 19.59,132.51 35.34,0.74 73.8,-39.19 45.63,-62.08 -11.1,-9.02 -27.42,-7.35 -36.45,3.75 -6.58,8.07 -8.12,7.41 -9.77,3.98 -2.61,-5.4 -2.5,-13.86 2.22,-23.91 9.25,-19.69 51.11,-40.74 70.94,-44.22 4.27,-0.48 8.51,-1.14 12.68,-1.94 22.31,11.56 45.3,22.08 69.14,31.32 16.54,7.14 16.98,9.31 32.88,11.77 33.05,10.77 67.68,19.04 104.29,24.2 14.65,3.29 6.16,3.88 22.42,2.72 20.64,2.14 41.91,3.31 63.85,3.36 202.63,0.6 386.85,-133.28 368.03,-351.15 -9.13,-105.82 -77.59,-172.07 -186.27,-169.37 -163.94,4.06 -217.95,209.9 -118.05,309.81 52.71,52.71 135.51,18.42 136.54,-36.24 1,-52.18 -37.37,-81.55 -85.12,-59.51 -20.93,9.66 -20.16,49.56 -6.6,65.36 -2.74,-1.65 -5.45,-3.75 -8.07,-6.36 -68.98,-69.02 -34.03,-218.4 82.5,-221.29 96.03,-2.38 134.74,60.03 134.49,148.84 -0.48,173.22 -157.76,268.6 -317.46,268.12 -25.8,-0.07 -50.65,-1.84 -74.66,-5.09 -29.97,-10.8 -60.36,-38.64 -81.7,-82.72 -20.92,-43.21 -32.7,-101.52 -26.96,-174.41 4.39,-55.57 -11.56,-125.87 -52.59,-155.75 -63.95,-46.54 -148.51,21.45 -103.78,83.08 8.42,11.61 24.64,14.2 36.26,5.79 0.3,-0.23 79.17,-74.28 68.34,62.83 -7.33,92.77 10.7,175.08 51.7,235.09 -8.33,-2.88 -16.59,-5.95 -24.74,-9.18 -35.35,-17.91 -71.19,-45.26 -101.13,-85.09 -30.36,-40.39 -54.7,-93.74 -66.5,-163.34 -9.02,-53.08 -35.9,-120.04 -78.3,-146.49 -71.72,-44.74 -141.71,27.24 -85.74,85.49 11.86,12.35 27.98,7.84 37.1,-2.55 4.96,-5.64 36.41,-30.57 52.57,0.76 10.35,20.03 18.67,44.71 23.19,71.32 9.74,57.37 27.28,105.3 49.68,145.1 -187.73,-133.28 -346.46,-327.1 -584.32,-348.92 -265.71,-24.36 -512.58,162.66 -534.7,440.13 -17.65,221.28 95.29,374.65 309.82,412.54 9.48,44.93 3.31,99.34 -17.67,141.11 -55.09,109.66 -186.74,119.64 -249.12,196.97 -34.38,42.61 -43.89,117.3 7.74,144.87 59.58,31.82 141.57,-28.35 91.11,-86.02 -22.45,-25.65 -61.44,8.46 -38.99,34.13 0,0 9.57,2.97 -8.27,7.5 -38.94,9.9 -32.91,-41.08 -11.2,-67.99 51.18,-63.42 191.5,-79.86 255.01,-206.31 24.21,-48.17 32.04,-106.2 25.13,-157.32 92.49,9.37 224.83,-6.91 274.98,-89.62 63,-103.93 -8.58,-154.1 -57.85,-135.09 -43.45,16.78 -43.69,74.93 -7.7,74.93 14.36,0 26.01,-11.65 26.01,-26.01 0,-4.14 32.46,-1.98 -4.73,59.35 -40.84,67.37 -168.5,71.69 -244.27,63.01 -21.99,-57.7 -65.06,-104.62 -119.23,-139.43 -39.44,-25.36 -74.05,-60.17 -99.8,-101.66 62.85,39.58 157.3,41.96 186.74,-36.02 17.77,-47.01 -5.28,-98.68 -63.09,-96.09 -39.8,1.81 -63.46,34.26 -46.41,73.35 13.37,30.64 61.27,11.84 47.21,-21.45 19.25,-1.51 18.65,13.01 13.77,25.91 -19.57,51.78 -103.97,27.4 -134.73,-10.43 -21.99,-27.03 -36.91,-73 -39.15,-124.28 -5.45,-124.69 60.95,-204.18 167.38,-265.63zm-594.43 0c-119.05,-68.74 -265.26,-80.69 -394.25,-27.79 -159.22,65.31 -297.59,215.99 -446.31,318.79 78.24,-25.83 157.93,-81.95 225.9,-138.27 76.59,-63.48 146.89,-121.75 260.94,-86.03 86.19,26.97 137.55,154.99 55.36,207.06 -11.04,7.01 -23.56,11.45 -36.26,13.1 -63.63,8.27 -108.24,-65.31 -73.25,-106.72 26.75,-31.63 85.91,-11.79 99.22,18.53 1.19,-33.39 -29.37,-72.67 -60.52,-82.41 -112.96,-35.39 -184.23,60.85 -274.61,125.57 -60.74,43.52 -128.5,83.47 -192.39,102.11 60.53,52.65 33.57,131.39 -19.59,132.51 -35.34,0.74 -73.81,-39.19 -45.63,-62.08 11.1,-9.02 27.42,-7.35 36.45,3.75 6.58,8.07 8.12,7.41 9.77,3.98 2.61,-5.4 2.5,-13.86 -2.22,-23.91 -9.25,-19.69 -51.11,-40.74 -70.94,-44.22 -4.27,-0.48 -8.51,-1.14 -12.68,-1.94 -22.31,11.56 -45.3,22.08 -69.14,31.32 -16.54,7.14 -16.98,9.31 -32.88,11.77 -33.05,10.77 -67.68,19.04 -104.29,24.2 -14.65,3.29 -6.16,3.88 -22.42,2.72 -20.64,2.14 -41.91,3.31 -63.86,3.36 -202.62,0.6 -386.84,-133.28 -368.02,-351.15 9.13,-105.82 77.59,-172.07 186.27,-169.37 163.94,4.06 217.95,209.9 118.04,309.81 -52.7,52.71 -135.5,18.42 -136.54,-36.24 -0.99,-52.18 37.38,-81.55 85.13,-59.51 20.93,9.66 20.16,49.56 6.6,65.36 2.73,-1.65 5.45,-3.75 8.07,-6.36 68.98,-69.02 34.03,-218.4 -82.5,-221.29 -96.03,-2.38 -134.74,60.03 -134.49,148.84 0.48,173.22 157.76,268.6 317.45,268.12 25.81,-0.07 50.66,-1.84 74.67,-5.09 29.97,-10.8 60.36,-38.64 81.7,-82.72 20.92,-43.21 32.7,-101.52 26.96,-174.41 -4.39,-55.57 11.56,-125.87 52.59,-155.75 63.95,-46.54 148.51,21.45 103.78,83.08 -8.42,11.61 -24.64,14.2 -36.26,5.79 -0.3,-0.23 -79.17,-74.28 -68.34,62.83 7.33,92.77 -10.7,175.08 -51.71,235.09 8.34,-2.88 16.6,-5.95 24.75,-9.18 35.35,-17.91 71.19,-45.26 101.13,-85.09 30.36,-40.39 54.7,-93.74 66.5,-163.34 9.02,-53.08 35.9,-120.04 78.3,-146.49 71.72,-44.74 141.71,27.24 85.73,85.49 -11.85,12.35 -27.97,7.84 -37.09,-2.55 -4.96,-5.64 -36.41,-30.57 -52.57,0.76 -10.35,20.03 -18.67,44.71 -23.2,71.32 -9.73,57.37 -27.28,105.3 -49.67,145.1 187.73,-133.28 346.46,-327.1 584.32,-348.92 265.71,-24.36 512.58,162.66 534.7,440.13 17.65,221.28 -95.29,374.65 -309.82,412.54 -9.48,44.93 -3.31,99.34 17.67,141.11 55.09,109.66 186.74,119.64 249.12,196.97 34.38,42.61 43.89,117.3 -7.74,144.87 -59.58,31.82 -141.57,-28.35 -91.11,-86.02 22.45,-25.65 61.44,8.46 38.99,34.13 0,0 -9.57,2.97 8.27,7.5 38.94,9.9 32.9,-41.08 11.2,-67.99 -51.18,-63.42 -191.5,-79.86 -255.01,-206.31 -24.21,-48.17 -32.04,-106.2 -25.13,-157.32 -92.49,9.37 -224.83,-6.91 -274.98,-89.62 -63.01,-103.93 8.58,-154.1 57.85,-135.09 43.45,16.78 43.69,74.93 7.7,74.93 -14.36,0 -26.01,-11.65 -26.01,-26.01 0,-4.14 -32.46,-1.98 4.73,59.35 40.84,67.37 168.5,71.69 244.27,63.01 21.99,-57.7 65.06,-104.62 119.23,-139.43 39.44,-25.36 74.05,-60.17 99.8,-101.66 -62.85,39.58 -157.3,41.96 -186.74,-36.02 -17.77,-47.01 5.28,-98.68 63.09,-96.09 39.8,1.81 63.46,34.26 46.41,73.35 -13.37,30.64 -61.27,11.84 -47.21,-21.45 -19.25,-1.51 -18.65,13.01 -13.77,25.91 19.57,51.78 103.96,27.4 134.73,-10.43 21.99,-27.03 36.91,-73 39.15,-124.28 5.45,-124.69 -60.95,-204.18 -167.38,-265.63zm-634.73 -5504.24c53.54,17.67 106.36,50.27 151.68,82.75 65.87,47.15 131.94,132.21 222.99,103.71 16.22,-5.08 32.54,-21.33 40.61,-39.06 -22.69,15.5 -57.92,17.76 -75.95,-3.55 -35.4,-41.87 11.91,-106.96 66.97,-99.82 11.65,1.52 22.99,5.6 32.93,11.9 76.69,48.59 23.95,162.05 -47.72,184.49 -95.41,29.88 -153.98,-15.17 -223.66,-72.91 -39.81,-32.98 -86.13,-67.54 -134.48,-92.2 104.31,80.62 207.05,183.01 324.91,231.35 104.91,43.02 224.73,33.82 322.68,-22.75 84.72,-48.91 140.65,-112.96 136.16,-215.3 -1.41,-32.42 -10.17,-73.89 -31.14,-99.66 -16.84,-20.71 -66.99,-42.54 -90.95,-24.3 13.27,-7.99 32.65,-6.1 40.75,12.47 15.7,36.02 -5.7,68.67 -44.46,70.41 -51.32,2.33 -76.18,-43.79 -59.1,-89.06 22.91,-60.63 88.75,-66.97 141.4,-45.54 -18.4,-24.01 -40.91,-44.88 -66.32,-61.22 -43.93,-28.25 -80.82,-66.86 -100.48,-115.62 -56.79,-5.88 -160.8,-3.57 -193.15,49.77 -0.93,1.52 -13.85,25.41 -14.36,35.76 4.11,-10.55 14.39,-18.05 26.41,-18.05 38.79,0 37.68,59.19 -4.03,75.28 -24.01,9.26 -52.21,0.94 -67.04,-20.26 -21.76,-31.18 -6.94,-72.78 10.76,-101.96 42.54,-70.17 150.6,-84.66 227.26,-78.59 -4.16,-42.61 3.39,-88.6 22.55,-126.71 25.3,-50.35 64.77,-81.41 112.79,-108.46 29.93,-16.87 79.14,-38.2 100.49,-64.66 9.09,-11.27 25.32,-53.11 -2.52,-46.03 -0.04,0 -0.09,0.02 -0.14,0.03 16.43,27.11 -22.83,58.93 -45.87,32.59 -47.28,-54.02 28.3,-111.69 84.06,-81.91 48.62,25.97 38.1,94.06 8.48,130.75 -55.68,69.03 -161.42,72.58 -206.82,162.93 -16.02,31.9 -21.39,73.51 -15.03,108.89 181.76,34 273.77,166.9 259.16,350.04 -18.4,230.73 -225.08,393.7 -452.81,372.84 -190.83,-17.5 -322.6,-166.85 -467.81,-275.66 14.23,31.15 23.73,64.26 29.47,98.08 3.34,19.68 9.51,39.75 18.68,57.52 7.74,14.96 24.12,9.31 32.92,-0.72 10.87,-12.39 28.72,-14.83 40.71,-2.34 52.34,54.47 -13.79,122.64 -79.77,81.47 -38.57,-24.06 -60.95,-83.41 -68.27,-126.58 -8.13,-47.84 -24.85,-94.21 -54.18,-133.23 -21.8,-29 -49.58,-52.56 -81.69,-68.85 -0.69,-0.26 -1.38,-0.53 -2.07,-0.81 30.87,54.9 38.79,121.62 33.9,183.54 -4.29,54.44 1.68,78.91 46.42,46.45 12.65,-9.17 30.33,-6.34 39.51,6.29 42.14,58.09 -37.04,121.29 -95.78,78.51 -38.22,-27.81 -50.06,-91.02 -46.53,-135.66 3.73,-47.46 -0.85,-98.57 -21.83,-141.92 -13.02,-26.89 -34.79,-54.63 -63.7,-65.34 -20.1,-2.69 -40.36,-4.03 -60.63,-4.08 -128.89,-0.37 -257.48,75.91 -257.88,216.79 -0.2,70.49 29.38,119.25 105.27,117.36 80.28,-1.98 114.06,-97.75 76.95,-157.04 0.06,14.48 -5.3,28.86 -17.47,34.49 -44.84,20.7 -81.28,-8.3 -80.38,-55.74 1.12,-58.65 82.84,-77.07 125.14,-34.79 90.23,90.25 35.65,266.1 -102.92,269.53 -93.37,2.31 -154.03,-54.93 -162,-147.2 -15.91,-184.22 141.91,-300.35 313.31,-299.84 18,0.05 35.99,0.98 53.3,2.83 11.81,-0.89 9.29,-0.02 19.77,2.36 29.65,4.17 59.06,11.01 87.26,20.25 12.52,1.9 16.81,5.12 28.37,10.09 19.07,7.39 37.83,15.92 56.13,25.3 2.91,-0.5 5.81,-0.93 8.59,-1.23 14.51,-2.57 47.47,-19.15 54.03,-33.12 0.85,-1.8 1.77,-4.23 2.26,-6.75 -10.15,9.47 -26.03,10.26 -37.09,1.26 -30.65,-24.9 9.69,-64.22 42.36,-63.53 56.57,1.2 65.41,72.21 28.67,114.01zm3736.76 3156.97c7.99,-31.58 49.76,-58.77 82.91,-37.75 62.08,39.39 18.18,119.51 -55.92,111.36 -54.65,-6.01 -88.87,-45.94 -93.95,-99.95 -9.01,-95.9 56.34,-165.79 146.45,-186.57 103.66,-23.92 208.97,19.53 276.81,98.99 56.32,65.97 78.28,140.41 78.28,225.98 0,261.18 -249.6,352.63 -472.06,352.63 -246.58,0 -402.89,-199.61 -402.89,-435.81 0,-250.27 247.39,-447.66 486.83,-447.74 85.82,-0.03 186.93,25.63 263.67,64.39 63.84,32.23 119.52,75.82 166.78,129.01 -2.38,-115.73 48.32,-215.24 174.14,-235.51 113.51,-18.28 223.3,83.74 199.82,198.96 -23.41,114.83 -171.09,92.69 -166.11,4.07 0.88,-15.59 16.42,-29.47 32,-28.61 35.91,1.97 19.16,29.46 45.58,32.08 4.4,0.44 8.87,-0.05 13.05,-1.48 27.67,-9.36 24.89,-27.7 20.85,-52.76 -10.02,-62.27 -74.53,-106.4 -136.31,-96.46 -126.2,20.31 -140.84,147.42 -117.46,251.3 23.82,105.87 70.99,208.47 148.08,286.2 57.5,57.97 132.32,101.72 214.26,111.46 28.6,-87.48 101.49,-132.63 189.16,-143.93 -31.11,-36.81 -46.77,-82.53 -48.01,-131.15 -1.88,-73.96 70.09,-143.63 133.45,-92.64 47.04,37.86 27.11,112.7 -30.49,113.83 -18.07,0.34 -35.58,-6.78 -46.54,-19.93 0.39,23.32 8.11,49.88 17.35,67.59 21.42,41.01 62.04,69.02 107.37,76.43 41.47,-43.54 98.66,-92.45 161.11,-94.47 91.89,-2.96 165.63,98.65 117.9,181.02 -44.09,76.08 -147.46,48.05 -143.48,-24.11 1.47,-26.74 18.65,-45.56 39.63,-53.63 -25.23,7.12 -51.83,20.04 -72.41,30.79 -24.7,12.9 -52.66,18.89 -80.46,18.77 -80.14,80.09 -185.65,127.15 -299.11,129.8 -2.83,27.85 -2.5,69.16 16.34,89.47 3.5,3.79 7.54,6.91 11.94,9.44 -0.37,-11.61 3.58,-24.43 8.83,-33.08 13.92,-22.96 46.09,-37.49 70.81,-22.48 68.28,41.46 19.91,128.61 -60.56,119.75 -60.36,-6.65 -97.85,-50.55 -103.45,-110.19 -1.74,-18.58 -2.05,-37.22 -0.45,-55.78 -93,-12.29 -177.73,-61.07 -243.25,-127.13 -75.39,-76.02 -125.32,-173.46 -153.7,-276.06 -52.42,-85.44 -122.23,-154.74 -212.06,-200.11 -69.18,-34.94 -160.92,-58.31 -238.23,-58.33 -208.28,-0.05 -430.22,172.37 -430.22,391.23 0,204.84 131.07,379.19 346.28,379.19 229.66,0 456.94,-96.84 408.88,-366.65 -15.05,-84.43 -82.68,-165 -164.23,-192.57 -90.46,-30.59 -228.94,1.99 -217.89,119.64 1.06,11.38 4.03,22.64 10.73,31.5zm1421.63 118.53c14.83,-0.95 29.79,3.29 41.31,13.6 -0.39,-2.18 -0.89,-3.96 -1.46,-4.97 -8.27,-9.16 -21.42,-10.49 -33.67,-9.38 -2.04,0.19 -4.1,0.44 -6.18,0.75zm-2762.51 46.94c-12.36,2.86 -23.77,11.26 -32.38,19.88 -24.05,24.06 -13.08,79.65 9.69,102.41 7.94,7.94 11.78,8.49 18.84,14.2 29.37,23.67 69.11,38.54 106.22,43.63 108.33,14.87 214.45,-49.36 279.66,-131.92 57.14,-72.37 89.49,-163.62 74.93,-256.2 -4.08,-26 -12.23,-53.84 -27.06,-75.83 -0.82,-1.2 -3.08,-4.97 -4.17,-5.84 -9.98,-2.78 -15.17,-2.51 -26.57,-7.1 -6.76,-2.72 -13.31,-5.97 -19.52,-9.78 -7.11,-4.38 -13.96,-9.19 -20.5,-14.39 -12.32,-0.77 -33.29,4.96 -46.07,14.14 35.59,8.01 54.9,55.32 16.34,80.43 -44.9,29.25 -99.31,-30.26 -80.74,-85.07 10.36,-30.54 36.47,-49.49 66.08,-58.64 -17.31,-27.4 -28.78,-61.18 -29.18,-93.34 -0.49,-40.15 14.87,-82.71 38.6,-114.81 52.29,-70.77 137.63,-88.43 220.78,-74.26 65.59,11.18 117.29,43.63 153.15,95.35 -7.55,-36.18 -18.58,-65.05 -34.78,-103.63 -35.07,-83.48 -61.13,-152.61 -4.83,-235.27 43.65,-64.09 166.4,-78.49 190.37,7.97 13.4,48.37 -20.06,96.58 -71.99,92.53 -16.3,-1.26 -32,-8.46 -41.08,-22.48 -2.78,-4.31 -4.8,-9.01 -6,-14 -3.8,-8.06 -5.74,-16.84 -5.74,-25.76 0,-9.38 2.15,-18.47 6.18,-26.67 -10,4.77 -19.15,11.62 -25.04,20.26 -53.64,78.74 8.58,166.89 34.56,243.45 22.8,67.25 28.82,151.75 25.61,222.27 -2.33,51.29 -9.79,103.08 -23.57,152.44 -17.3,73.23 -53.93,140.37 -100.05,199.54 -60.76,77.96 -139.73,144.71 -222.53,198.24 -124.67,80.6 -306.29,128.31 -440.16,42.18 -14.07,-9.06 -29.97,-19.79 -41.8,-31.62 -25.73,-25.72 -38.9,-59.55 -39.36,-95.72 -0.37,-28.77 8.79,-65.83 29.69,-86.75 73,-73.02 183.85,-24.57 159.54,54.24 -5.03,16.29 -15.79,26.15 -30.09,34.54 -10.45,6.13 -23.6,4.9 -32.68,-2.95 -17.88,-7.06 -29.75,-24.41 -29.75,-43.75 0,-7.74 1.87,-15.24 5.38,-21.93zm1335.99 -1392.24c6.31,-1.79 12.88,-2.7 19.53,-2.7 73.84,0 98.64,89.63 44.03,140.3 -59.03,54.79 -144.41,-13.91 -135.85,-90.54 21.86,-195.55 263.35,-228.21 365.18,-61.02 80.09,131.46 48.4,279.19 -72.49,372.21 -85.42,65.74 -196.69,85.3 -302.03,73.3 -148.75,-16.96 -292.29,-96.03 -383.76,-214.93 -172.4,-224.1 -191.8,-417.23 -205.13,-684.91l-1.8 -12.39c-20.18,-111.31 -50.84,-232.82 -103.14,-334.03 -24.69,-47.77 -79.73,-133.85 -137.22,-148.71 -16.67,-4.31 -35.93,-5.69 -53.27,-2.24 9.64,24.96 -8.64,54.08 -37.21,54.08 -43.32,0 -51.5,-58.21 -25.9,-84.39 30.51,-31.2 90.56,-32.48 130.52,-22.12 75.14,19.48 140.37,113.75 173.3,177.46 8.88,17.18 17.07,34.74 24.66,52.56 -19.71,-112.96 -52.81,-216.7 -127.12,-310.04 -160.87,-202.08 -434.16,-230.95 -635.67,-70.51 -5.49,4.38 -10.93,8.99 -16.11,13.87 59.8,4.28 83.61,94.47 11.27,115.29 -34.94,10.05 -75.29,-7.36 -90.23,-40.86 -22.87,-51.23 22.77,-102.99 59.88,-132.52 225.87,-179.82 534.84,-146.87 715.08,79.56 65.16,81.84 106.29,179.43 127.99,281.32 27.07,127 34.92,251.51 41.35,380.66 2.74,54.75 5.42,109.61 10.62,164.21 28.55,-90.46 85.7,-169.37 152.26,-236.39 26.09,-26.28 66.17,13.54 40.08,39.82 -131.57,132.53 -181.95,261.25 -138.18,441.88 1.8,7.45 3.65,14.89 5.18,22.39 0.41,2 0.61,4.03 0.57,6.06 30.2,77.99 71.98,149.23 122.93,215.46 6.32,8.21 12.9,16.2 19.73,23.96 -56.52,-144.54 -14.3,-290.29 86.74,-410.87 9.98,-11.92 27.92,-13.52 39.84,-3.52 11.91,9.97 13.51,27.9 3.53,39.82 -74.8,89.29 -118.35,198.45 -89.76,314.77 15.16,61.65 57.53,138.12 111.28,174.36 1.94,1.32 3.72,2.86 5.29,4.6 52.77,26.03 110.35,43.45 168.85,50.11 108.69,12.39 226.21,-13.37 300.34,-98.78 67.57,-77.84 72.74,-173.7 19.49,-261.14 -29.62,-48.63 -79.17,-83.16 -137.63,-81.14 -45.97,1.58 -85.67,26.1 -106.99,65.71zm-2641.56 -2037.28c52.65,-21.42 118.48,-15.08 141.38,45.55 17.09,45.27 -7.79,91.36 -59.1,89.05 -38.77,-1.74 -60.15,-34.41 -44.45,-70.38 8.11,-18.6 27.52,-20.48 40.78,-12.46 -23.93,-18.29 -74.15,3.58 -90.98,24.27 -20.97,25.77 -29.74,67.22 -31.15,99.65 -4.48,102.37 51.43,166.4 136.17,215.33 97.94,56.54 217.77,65.75 322.67,22.73 117.88,-48.34 220.61,-150.73 324.91,-231.35 -48.35,24.65 -94.7,59.22 -134.48,92.2 -69.68,57.76 -128.26,102.79 -223.66,72.91 -71.66,-22.42 -124.45,-135.89 -47.73,-184.49 9.94,-6.3 21.28,-10.38 32.96,-11.9 55.04,-7.14 102.33,57.93 66.95,99.81 -18.03,21.32 -53.26,19.06 -75.95,3.56 8.07,17.75 24.39,33.98 40.61,39.06 91.06,28.51 157.12,-56.53 222.99,-103.71 45.31,-32.48 98.14,-65.08 151.68,-82.74 -36.75,-41.79 -27.89,-112.82 28.69,-114.03 32.67,-0.7 72.95,38.65 42.34,63.54 -11.08,9.01 -27,8.2 -37.14,-1.34 0.5,2.53 1.45,5.02 2.3,6.84 6.58,13.96 39.55,30.54 54.04,33.11 2.8,0.3 5.71,0.73 8.62,1.25 18.3,-9.42 37.04,-17.94 56.1,-25.33 11.54,-4.96 15.86,-8.18 28.37,-10.08 28.2,-9.22 57.61,-16.07 87.26,-20.25 10.47,-2.38 7.96,-3.25 19.77,-2.36 17.32,-1.84 35.31,-2.78 53.3,-2.83 171.38,-0.51 329.23,115.63 313.31,299.83 -7.98,92.28 -68.62,149.52 -162.01,147.21 -138.57,-3.43 -193.11,-179.28 -102.89,-269.53 42.28,-42.28 124.01,-23.86 125.12,34.78 0.9,47.48 -35.54,76.45 -80.38,55.75 -12.18,-5.61 -17.53,-20 -17.47,-34.47 -37.09,59.28 -3.33,155.03 76.95,157.01 75.87,1.89 105.48,-46.85 105.28,-117.35 -0.4,-140.88 -128.99,-217.16 -257.9,-216.79 -20.27,0.05 -40.53,1.39 -60.62,4.09 -28.93,10.72 -50.7,38.42 -63.71,65.33 -20.97,43.35 -25.54,94.45 -21.8,141.9 3.52,44.65 -8.33,107.86 -46.54,135.67 -58.75,42.75 -137.92,-20.4 -95.79,-78.48 9.18,-12.65 26.86,-15.48 39.51,-6.31 44.73,32.46 50.71,8.03 46.42,-46.44 -4.89,-61.9 3.04,-128.64 33.9,-183.53 -0.69,0.26 -1.37,0.53 -2.06,0.79 -32.13,16.28 -59.91,39.85 -81.71,68.85 -29.34,39.04 -46.04,85.39 -54.17,133.24 -7.32,43.17 -29.7,102.53 -68.25,126.58 -66,41.18 -132.12,-27.03 -79.79,-81.5 11.99,-12.47 29.84,-10.03 40.71,2.34 8.8,10.03 25.17,15.7 32.9,0.74 9.16,-17.78 15.36,-37.84 18.7,-57.52 5.74,-33.81 15.23,-66.93 29.46,-98.06 -145.21,108.79 -276.96,258.13 -467.8,275.64 -227.72,20.89 -434.43,-142.1 -452.81,-372.84 -14.61,-183.15 77.43,-316.02 259.17,-350.04 6.37,-35.38 0.98,-76.99 -15.04,-108.89 -45.39,-90.35 -151.12,-93.9 -206.82,-162.93 -29.64,-36.72 -40.15,-104.8 8.49,-130.77 55.75,-29.78 131.33,27.92 84.06,81.91 -23.06,26.37 -62.32,-5.48 -45.89,-32.58 -0.04,-0.02 -0.09,-0.03 -0.13,-0.03 -27.84,-7.07 -11.6,34.78 -2.5,46.04 21.35,26.46 70.55,47.79 100.48,64.64 48,27.06 87.49,58.12 112.79,108.45 19.16,38.14 26.7,84.14 22.55,126.76 76.66,-6.11 184.71,8.4 227.25,78.56 17.7,29.18 32.52,70.78 10.74,101.95 -14.81,21.21 -43.01,29.54 -67.02,20.26 -41.69,-16.1 -42.81,-75.27 -4.01,-75.27 12.02,0 22.28,7.5 26.39,18.08 -0.51,-10.37 -13.43,-34.26 -14.36,-35.79 -32.35,-53.34 -136.36,-55.64 -193.15,-49.75 -19.66,48.74 -56.53,87.39 -100.47,115.62 -25.42,16.34 -47.91,37.21 -66.31,61.2zm-3867.99 3507.84c81.95,-9.74 156.79,-53.47 214.29,-111.46 77.07,-77.72 124.26,-180.32 148.08,-286.18 23.38,-103.9 8.74,-231.02 -117.48,-251.33 -61.73,-9.95 -126.29,34.14 -136.32,96.45 -4.06,25.09 -6.82,43.42 20.87,52.78 4.17,1.43 8.65,1.92 13.04,1.48 26.42,-2.63 9.71,-30.11 45.59,-32.08 15.57,-0.85 31.1,13.02 31.97,28.6 4.99,88.65 -142.67,110.77 -166.08,-4.06 -23.48,-115.21 86.31,-217.23 199.81,-198.96 125.81,20.27 176.52,119.79 174.14,235.51 47.26,-53.19 102.94,-96.79 166.78,-129.01 76.75,-38.78 177.85,-64.43 263.68,-64.41 239.43,0.07 486.82,197.5 486.82,447.75 0,236.21 -156.29,435.82 -402.89,435.82 -222.46,0 -472.06,-91.45 -472.06,-352.63 0,-85.58 21.96,-160.01 78.29,-225.99 67.83,-79.45 173.15,-122.9 276.8,-98.98 90.1,20.78 155.45,90.67 146.43,186.57 -5.08,54.01 -39.28,93.92 -93.94,99.93 -74.09,8.15 -117.98,-71.95 -55.91,-111.33 33.15,-21.03 74.92,6.16 82.91,37.73 6.69,-8.85 9.67,-20.1 10.73,-31.48 11.06,-117.65 -127.43,-150.23 -217.89,-119.67 -81.55,27.56 -149.18,108.17 -164.22,192.59 -48.05,269.82 179.2,366.65 408.87,366.65 215.21,0 346.28,-174.36 346.28,-379.2 0,-218.85 -221.95,-391.27 -430.21,-391.2 -77.31,0.02 -169.04,23.37 -238.23,58.29 -89.86,45.38 -159.65,114.66 -212.07,200.13 -28.4,102.6 -78.31,200.04 -153.7,276.06 -65.54,66.07 -150.24,114.84 -243.25,127.13 1.61,18.57 1.29,37.19 -0.45,55.77 -5.61,59.64 -43.08,103.57 -103.46,110.21 -80.46,8.86 -128.84,-78.32 -60.55,-119.76 24.72,-15.01 56.91,-0.49 70.83,22.48 5.25,8.65 9.18,21.49 8.81,33.09 4.4,-2.54 8.44,-5.66 11.94,-9.45 18.84,-20.33 19.16,-61.62 16.34,-89.49 -113.47,-2.63 -218.97,-49.69 -299.1,-129.8 -27.8,0.12 -55.76,-5.85 -80.47,-18.75 -20.6,-10.75 -47.24,-23.71 -72.52,-30.83 21.04,8.04 38.27,26.9 39.74,53.67 3.98,72.15 -99.4,100.2 -143.49,24.11 -47.72,-82.36 26.02,-183.98 117.9,-181.02 62.44,2.02 119.65,50.92 161.13,94.46 45.32,-7.4 85.95,-35.39 107.37,-76.41 9.24,-17.7 16.95,-44.27 17.34,-67.6 -10.97,13.15 -28.47,20.29 -46.55,19.93 -57.6,-1.15 -77.52,-76 -30.47,-113.85 63.38,-50.97 135.29,18.72 133.43,92.67 -1.24,48.63 -16.89,94.34 -48,131.14 87.67,11.3 160.56,56.45 189.15,143.93zm-516.66 -125.25c-2.14,-0.32 -4.25,-0.58 -6.34,-0.77 -12.26,-1.12 -25.42,0.23 -33.67,9.4 -0.57,1 -1.05,2.78 -1.45,4.94 11.55,-10.32 26.57,-14.57 41.46,-13.57zm2737.98 112.62c-9.1,7.83 -22.26,9.09 -32.69,2.95 -14.3,-8.4 -25.05,-18.25 -30.08,-34.54 -24.3,-78.84 86.53,-127.24 159.54,-54.24 20.9,20.91 30.05,57.98 29.69,86.75 -0.45,36.17 -13.64,70 -39.38,95.72 -11.83,11.83 -27.73,22.56 -41.8,31.62 -133.84,86.15 -315.46,38.43 -440.13,-42.16 -82.8,-53.53 -161.8,-120.28 -222.54,-198.26 -46.11,-59.16 -82.75,-126.29 -100.05,-199.53 -13.8,-49.39 -21.24,-101.17 -23.57,-152.46 -3.21,-70.52 2.81,-155.01 25.61,-222.26 25.98,-76.56 88.2,-164.72 34.56,-243.45 -5.89,-8.66 -15.05,-15.5 -25.04,-20.26 4.03,8.2 6.18,17.29 6.18,26.67 0,8.93 -1.96,17.69 -5.76,25.76 -1.17,4.99 -3.2,9.69 -5.98,14 -9.07,14.01 -24.78,21.22 -41.07,22.48 -51.93,4.05 -85.39,-44.15 -71.99,-92.52 23.96,-86.46 146.7,-72.05 190.34,-7.98 56.32,82.67 30.26,151.78 -4.81,235.27 -16.2,38.57 -27.23,67.43 -34.78,103.62 35.87,-51.7 87.58,-84.14 153.15,-95.32 83.14,-14.19 168.48,3.47 220.76,74.25 23.73,32.12 39.09,74.65 38.61,114.81 -0.39,32.15 -11.86,65.95 -29.18,93.35 29.62,9.13 55.72,28.08 66.07,58.6 18.59,54.83 -35.82,114.34 -80.74,85.09 -38.55,-25.11 -19.23,-72.43 16.34,-80.43 -12.77,-9.18 -33.75,-14.91 -46.05,-14.14 -6.54,5.21 -13.4,10 -20.52,14.39 -6.19,3.81 -12.75,7.07 -19.49,9.78 -11.39,4.58 -16.63,4.32 -26.58,7.1 -1.08,0.87 -3.35,4.64 -4.17,5.84 -14.83,22 -22.98,49.82 -27.08,75.83 -14.55,92.58 17.81,183.83 74.95,256.2 65.2,82.54 171.32,146.77 279.64,131.91 37.12,-5.11 76.87,-19.96 106.24,-43.62 7.07,-5.71 10.9,-6.24 18.85,-14.2 22.76,-22.75 33.73,-78.36 9.68,-102.4 -8.63,-8.64 -20.02,-17.03 -32.38,-19.87 3.51,6.67 5.39,14.17 5.39,21.91 0,19.37 -11.87,36.7 -29.76,43.75zm-611.04 -2245.95c7.59,-17.83 15.8,-35.42 24.68,-52.6 32.9,-63.66 98.15,-158.01 173.27,-177.46 39.96,-10.34 100.02,-9.08 130.53,22.12 25.59,26.19 17.43,84.39 -25.91,84.39 -28.57,0 -46.84,-29.13 -37.2,-54.08 -17.33,-3.45 -36.61,-2.07 -53.27,2.25 -57.53,14.92 -112.52,100.88 -137.22,148.7 -52.29,101.19 -82.97,222.72 -103.14,334.03l-1.8 12.39c-13.32,267.66 -32.74,460.81 -205.14,684.91 -91.48,118.91 -234.98,197.96 -383.75,214.93 -105.35,12.02 -216.59,-7.58 -302.03,-73.3 -120.93,-93.02 -152.57,-240.74 -72.48,-372.23 101.84,-167.18 343.31,-134.52 365.17,61.04 8.56,76.63 -76.81,145.33 -135.85,90.53 -54.6,-50.67 -29.81,-140.29 44.02,-140.29 6.65,0 13.22,0.9 19.54,2.68 -21.31,-39.61 -61.01,-64.11 -106.99,-65.69 -58.46,-2.01 -108.02,32.52 -137.65,81.15 -53.26,87.45 -48.06,183.31 19.52,261.14 74.13,85.41 191.65,111.17 300.33,98.78 58.49,-6.66 116.08,-24.1 168.85,-50.09 1.57,-1.76 3.35,-3.31 5.29,-4.63 53.74,-36.24 96.12,-112.71 111.28,-174.36 28.61,-116.33 -14.96,-225.48 -89.76,-314.77 -9.98,-11.92 -8.37,-29.86 3.54,-39.83 11.93,-9.99 29.85,-8.38 39.82,3.53 101.04,120.59 143.26,266.29 86.76,410.83 6.82,-7.75 13.4,-15.74 19.7,-23.93 50.94,-66.22 92.76,-137.46 122.94,-215.43 -0.03,-2.05 0.16,-4.08 0.57,-6.09 1.54,-7.49 3.38,-14.93 5.17,-22.36 43.74,-180.67 -6.57,-309.34 -138.16,-441.9 -26.1,-26.3 13.99,-66.09 40.07,-39.83 66.54,67.03 123.72,145.93 152.27,236.39 5.18,-54.59 7.87,-109.45 10.61,-164.2 6.43,-129.15 14.3,-253.66 41.37,-380.66 21.71,-101.88 62.8,-199.5 127.96,-281.33 180.26,-226.42 489.22,-259.39 715.09,-79.56 37.11,29.55 82.74,81.29 59.89,132.53 -14.94,33.5 -55.31,50.9 -90.24,40.88 -72.33,-20.81 -48.51,-111.03 11.28,-115.31 -5.18,-4.88 -10.62,-9.49 -16.11,-13.87 -201.52,-160.43 -474.79,-131.56 -635.67,70.49 -74.34,93.37 -107.44,197.13 -127.12,310.1zm2013.51 -1240.82c-20.77,-85.7 -78.44,-143.97 -167.17,-170.99 15.8,21.53 36.49,39.39 58.87,53.77 45.32,29.15 82.77,69.92 108.3,117.22zm4070.12 3415.14c-3.93,-1.46 -7.83,-3.03 -11.67,-4.72 -80.15,-6.24 -167.29,11.78 -202.85,90.19 79.37,-5.17 153.02,-35.31 214.51,-85.47zm-1854.6 -189.48c0.17,-3.26 0.92,-6.45 2.18,-9.45 21.92,-51.99 29.97,-96.72 29.29,-153.15 -1.62,-135.43 -60.95,-244.08 -209.81,-242.29 -46.93,0.56 -89.53,17.39 -117.85,55.7 -17.77,24.05 -31.01,60.05 -26.82,90.24 2.82,20.26 9.91,39.37 21.25,56.39 5.3,7.94 11.42,15.3 18.2,22.01 1.77,0.23 3.53,0.5 5.28,0.79 24.58,4.2 46.35,14.7 64.78,31.25 6.91,-0.33 13.78,-1.56 20.39,-3.67 7.44,-2.35 14.53,-5.78 20.93,-10.21 -53.76,-20.2 -51.66,-106.53 20.14,-110 62.34,-3.03 78.42,69.51 48.42,118.27 -16.63,27.02 -42.68,46.59 -72.71,55.99 26.67,54.22 33.18,128.71 23.29,186.79 -11.1,65.18 -39.37,127.24 -78.99,180.28 60.79,-44.1 117.84,-96.07 163.56,-154.73 27.32,-35.07 51.05,-73.26 68.48,-114.21zm-2043.87 -3225.63c25.54,-47.31 62.98,-88.1 108.32,-117.25 22.38,-14.39 43.06,-32.24 58.86,-53.75 -88.74,27 -146.42,85.28 -167.18,171zm-4070.12 3415.11c61.49,50.17 135.16,80.29 214.53,85.48 -35.57,-78.41 -122.69,-96.45 -202.86,-90.2 -3.84,1.69 -7.74,3.26 -11.68,4.72zm2086.66 79.46c-39.63,-53.03 -67.89,-115.1 -79,-180.28 -9.9,-58.07 -3.38,-132.56 23.28,-186.78 -30.03,-9.41 -56.07,-28.98 -72.7,-56 -30,-48.75 -13.92,-121.31 48.42,-118.28 71.8,3.48 73.88,89.81 20.14,110.01 6.4,4.45 13.48,7.87 20.93,10.23 6.59,2.09 13.47,3.32 20.38,3.65 18.45,-16.55 40.22,-27.06 64.79,-31.25 1.77,-0.29 3.53,-0.56 5.3,-0.8 6.78,-6.69 12.9,-14.05 18.17,-21.99 11.35,-17.05 18.46,-36.12 21.26,-56.4 4.18,-30.19 -9.05,-66.18 -26.81,-90.23 -28.32,-38.33 -70.93,-55.15 -117.87,-55.71 -148.88,-1.79 -208.17,106.87 -209.8,242.31 -0.68,56.42 7.38,101.14 29.3,153.13 1.26,3 2.01,6.19 2.17,9.45 17.43,40.96 41.18,79.16 68.49,114.23 45.73,58.66 102.76,110.62 163.56,154.71zm743.67 2532.95c0.11,0 0,0 -0.14,0l0.14 0zm1068.08 -17.33c-28.11,81.35 -83.62,149.03 -151.37,192.61 -36.23,23.28 -65.43,51.74 -84.66,84.59 141.65,-35.39 225.09,-131.39 236.03,-277.2zm1239.86 17.33c-0.12,0 0,0 0.14,0l-0.14 0zm-1068.09 -17.33c28.12,81.35 83.63,149.03 151.38,192.61 36.23,23.28 65.43,51.74 84.66,84.59 -141.65,-35.39 -225.09,-131.39 -236.04,-277.2z"/>
   <path class="fil0" d="M4499.46 1345.96c423.74,0 807.39,171.79 1085.09,449.48 277.69,277.7 449.48,661.35 449.48,1085.09 0,423.74 -171.79,807.39 -449.48,1085.09 -277.7,277.69 -661.35,449.48 -1085.09,449.48 -423.74,0 -807.39,-171.79 -1085.09,-449.48 -277.69,-277.7 -449.48,-661.35 -449.48,-1085.09 0,-423.74 171.79,-807.39 449.48,-1085.09 277.7,-277.69 661.35,-449.48 1085.09,-449.48zm1014.62 519.95c-259.65,-259.63 -618.39,-420.25 -1014.62,-420.25 -396.23,0 -754.97,160.62 -1014.62,420.25 -259.63,259.65 -420.25,618.39 -420.25,1014.62 0,396.23 160.62,754.97 420.25,1014.62 259.65,259.63 618.39,420.25 1014.62,420.25 396.23,0 754.97,-160.62 1014.62,-420.25 259.63,-259.65 420.25,-618.39 420.25,-1014.62 0,-396.23 -160.62,-754.97 -420.25,-1014.62z"/>
   <path class="fil1" d="M2666.37 2684.62l40.05 124.09 130.4 -0.24 -105.64 76.45 40.53 123.93 -105.34 -76.84 -105.35 76.84 40.53 -123.93 -105.64 -76.45 130.4 0.24 40.06 -124.09zm3666.2 0l-40.06 124.09 -130.4 -0.24 105.64 76.45 -40.53 123.93 105.35 -76.84 105.34 76.84 -40.53 -123.93 105.64 -76.45 -130.4 0.24 -40.05 -124.09zm-287.81 -791.66l-23.32 72.24 -75.95 -0.13 61.51 44.53 -23.59 72.16 61.34 -44.75 61.34 44.75 -23.6 -72.16 61.52 -44.53 -75.95 0.13 -23.32 -72.24zm222.94 349.99l-29.99 92.91 -97.66 -0.17 79.1 57.25 -30.35 92.81 78.89 -57.55 78.9 57.55 -30.36 -92.81 79.11 -57.25 -97.67 0.17 -29.99 -92.91zm-3313.54 -349.99l23.32 72.24 75.96 -0.13 -61.52 44.53 23.6 72.16 -61.35 -44.75 -61.34 44.75 23.6 -72.16 -61.52 -44.53 75.96 0.13 23.31 -72.24zm-222.94 349.99l29.99 92.91 97.67 -0.17 -79.11 57.25 30.35 92.81 -78.89 -57.55 -78.89 57.55 30.35 -92.81 -79.11 -57.25 97.67 0.17 29.99 -92.91z"/>
   <path class="fil1" d="M207.96 4711.57l8583.01 0c10.97,-46.49 52.72,-81.08 102.57,-81.08 58.21,0 105.39,47.17 105.39,105.39 0,58.21 -47.17,105.39 -105.39,105.39 -49.83,0 -91.57,-34.58 -102.55,-81.06l-8583.05 0c-10.98,46.48 -52.71,81.06 -102.55,81.06 -58.21,0 -105.39,-47.17 -105.39,-105.39 0,-58.21 47.17,-105.39 105.39,-105.39 49.84,0 91.6,34.59 102.57,81.08z"/>
   <path class="fil1" d="M207.96 5806.03l8583.01 0c10.97,-46.48 52.72,-81.07 102.57,-81.07 58.21,0 105.39,47.17 105.39,105.39 0,58.2 -47.17,105.38 -105.39,105.38 -49.83,0 -91.57,-34.57 -102.55,-81.05l-8583.05 0c-10.98,46.48 -52.71,81.05 -102.55,81.05 -58.21,0 -105.39,-47.17 -105.39,-105.38 0,-58.21 47.17,-105.39 105.39,-105.39 49.84,0 91.6,34.59 102.57,81.07z"/>
   <path class="fil0" d="M5379.44 2311.52l0 34.67c-33.08,0 -60.04,6.11 -80.91,17.99 -20.54,11.87 -40.46,34.03 -59.07,66.77 -12.53,21.84 -32.43,74.49 -59.39,157.32l-354.45 1029.32 -37.88 0 -290.9 -816.78 -287.34 816.78 -34.36 0 -378.21 -1059.49c-28.25,-79.62 -46.22,-126.49 -53.6,-140.94 -12.53,-24.09 -29.54,-41.74 -51.36,-53.29 -21.53,-11.88 -50.74,-17.67 -87.98,-17.67l0 -34.67 471.31 0 0 34.67 -22.8 0c-33.07,0 -58.43,7.71 -76.09,22.8 -17.66,15.09 -26.33,33.4 -26.33,54.58 0,22.16 13.81,72.88 41.42,152.49l251.38 716.28 212.22 -608.72 -38.53 -107.23 -30.18 -86.05c-13.17,-31.79 -27.94,-59.4 -43.98,-83.48 -8.35,-11.88 -18.3,-22.15 -30.19,-30.49 -15.73,-11.25 -31.47,-19.6 -47.18,-24.41 -11.89,-3.86 -30.83,-5.79 -56.51,-5.79l0 -34.67 496.04 0 0 34.67 -34.04 0c-35,0 -60.68,7.71 -77.06,22.8 -16.37,15.09 -24.39,35.65 -24.39,61.64 0,32.12 14.12,88.61 42.37,168.89l244.96 693.15 242.39 -703.11c27.63,-78.34 41.43,-132.59 41.43,-162.77 0,-14.45 -4.49,-28.27 -13.48,-40.79 -9.32,-12.52 -20.55,-21.51 -34.37,-26.65 -24.07,-8.67 -54.89,-13.17 -93.1,-13.17l0 -34.67 380.13 0z"/>
   <path class="fil0" d="M1288.26 4966.72l0 17.64c-16.81,0 -30.53,3.1 -41.14,9.14 -10.45,6.05 -20.57,17.31 -30.05,33.96 -6.36,11.1 -16.48,37.88 -30.2,80l-180.24 523.39 -19.26 0 -147.91 -415.32 -146.11 415.32 -17.47 0 -192.31 -538.75c-14.37,-40.48 -23.52,-64.32 -27.27,-71.66 -6.37,-12.24 -15.02,-21.23 -26.14,-27.1 -10.92,-6.04 -25.79,-8.98 -44.72,-8.98l0 -17.64 239.67 0 0 17.64 -11.6 0c-16.81,0 -29.72,3.91 -38.7,11.6 -8.98,7.67 -13.38,16.97 -13.38,27.74 0,11.28 7.02,37.07 21.05,77.55l127.84 364.23 107.91 -309.54 -19.6 -54.52 -15.35 -43.74c-6.69,-16.17 -14.2,-30.21 -22.36,-42.44 -4.26,-6.05 -9.31,-11.27 -15.36,-15.51 -7.99,-5.72 -15.99,-9.96 -23.99,-12.41 -6.04,-1.97 -15.68,-2.94 -28.75,-2.94l0 -17.64 252.24 0 0 17.64 -17.3 0c-17.8,0 -30.87,3.91 -39.19,11.6 -8.32,7.67 -12.41,18.12 -12.41,31.34 0,16.33 7.18,45.05 21.55,85.88l124.56 352.46 123.27 -357.53c14.04,-39.84 21.06,-67.42 21.06,-82.77 0,-7.34 -2.29,-14.37 -6.85,-20.73 -4.74,-6.37 -10.45,-10.94 -17.48,-13.56 -12.24,-4.4 -27.92,-6.69 -47.33,-6.69l0 -17.64 193.29 0zm176.16 197.87c66.44,0 119.67,25.15 159.82,75.59 34.13,42.94 51.27,92.4 51.27,148.23 0,39.19 -9.48,78.85 -28.25,119.03 -18.77,40.16 -44.73,70.52 -77.71,90.92 -33.15,20.42 -69.87,30.54 -110.36,30.54 -66.12,0 -118.7,-26.28 -157.55,-78.85 -32.81,-44.41 -49.3,-94.04 -49.3,-149.21 0,-40.18 9.96,-80.17 29.89,-119.84 19.91,-39.67 46.19,-69.06 78.85,-88 32.49,-18.93 66.93,-28.41 103.34,-28.41zm-14.86 31.35c-16.82,0 -33.8,5.06 -50.93,15.02 -16.98,10.13 -30.86,27.6 -41.31,52.73 -10.61,25.15 -15.83,57.46 -15.83,96.97 0,63.67 12.73,118.54 38.03,164.73 25.31,46.2 58.78,69.22 100.24,69.22 30.86,0 56.32,-12.73 76.41,-38.2 20.09,-25.48 30.21,-69.22 30.21,-131.25 0,-77.71 -16.82,-138.78 -50.29,-183.34 -22.52,-30.54 -51.41,-45.88 -86.52,-45.88zm417.93 -31.35l0 98.94c36.41,-65.96 73.8,-98.94 112.16,-98.94 17.31,0 31.67,5.4 43.09,16.17 11.44,10.62 17.15,23.02 17.15,37.06 0,12.58 -4.08,23.19 -12.25,31.84 -8.33,8.65 -18.12,12.9 -29.38,12.9 -11.1,0 -23.52,-5.55 -37.23,-16.65 -13.88,-11.11 -24.17,-16.66 -30.7,-16.66 -5.71,0 -11.92,3.26 -18.61,9.63 -14.21,13.07 -29.07,34.78 -44.24,64.81l0 209.62c0,24.33 3.11,42.94 9.14,55.34 4.08,8.65 11.44,15.83 21.88,21.39 10.61,5.72 25.64,8.5 45.38,8.5l0 17.62 -224.31 0 0 -17.62c22.21,0 38.7,-3.43 49.47,-10.45 7.99,-5.23 13.55,-13.23 16.65,-24.51 1.63,-5.38 2.44,-20.89 2.44,-46.36l0 -169.45c0,-50.94 -0.97,-81.14 -3.1,-90.94 -2.12,-9.63 -5.87,-16.82 -11.43,-21.22 -5.54,-4.41 -12.56,-6.7 -20.73,-6.7 -9.95,0 -21.07,2.46 -33.47,7.19l-4.73 -17.64 132.72 -53.87 20.08 0zm327.16 -229.21l0 436.4 111.01 -101.72c23.68,-21.71 37.4,-35.43 41.15,-41.15 2.61,-3.91 3.92,-7.67 3.92,-11.59 0,-6.37 -2.78,-11.75 -8.01,-16.49 -5.22,-4.57 -13.88,-7.19 -26.12,-7.84l0 -15.67 190.53 0 0 15.67c-25.96,0.65 -47.66,4.75 -64.97,12.08 -17.31,7.52 -36.26,20.74 -56.97,39.69l-112.82 103.34 111.99 142.52c31.35,39.02 52.24,63.99 62.69,74.93 15.51,14.53 28.9,24 40.49,28.24 8.17,3.11 22.21,4.75 42.12,4.75l0 17.62 -213.05 0 0 -17.62c12.24,-0.34 20.41,-2.13 24.66,-5.4 4.4,-3.43 6.53,-7.99 6.53,-14.04 0,-7.35 -6.37,-19.11 -19.1,-35.27l-134.03 -171.59 0 144.97c0,28.41 1.95,47.02 5.87,56 4.09,8.82 9.64,15.19 16.98,19.11 7.35,3.75 23.19,5.87 47.68,6.21l0 17.62 -222.36 0 0 -17.62c22.2,0 39.02,-2.78 50.12,-8.17 6.69,-3.43 11.75,-8.82 15.18,-16 4.74,-10.45 7.18,-28.57 7.18,-54.21l0 -399.65c0,-50.11 -1.14,-80.8 -3.25,-92.06 -2.29,-11.28 -5.89,-18.95 -11.12,-23.19 -5.05,-4.41 -11.75,-6.54 -19.91,-6.54 -6.69,0 -16.82,2.78 -30.05,8.16l-8.16 -17.62 129.79 -53.88 22.04 0zm432.95 407.49c-0.34,64.82 15.51,115.59 47.34,152.48 31.84,36.74 69.38,55.18 112.49,55.18 28.57,0 53.54,-7.84 74.77,-23.52 21.22,-15.5 39.02,-42.76 53.38,-81.3l14.69 9.64c-6.7,44.08 -26.12,84.08 -58.29,119.83 -32.15,35.76 -72.48,53.71 -120.8,53.71 -52.57,0 -97.63,-20.41 -135.02,-61.38 -37.38,-40.99 -56.16,-95.99 -56.16,-165.05 0,-74.77 19.28,-133.21 57.64,-175.01 38.37,-41.96 86.52,-62.86 144.48,-62.86 48.96,0 89.3,16.17 120.81,48.49 31.52,32.33 47.34,75.58 47.34,129.78l-302.67 0zm0 -27.44l202.77 0c-1.64,-28.07 -4.91,-47.82 -9.97,-59.25 -7.99,-17.79 -19.92,-31.84 -35.75,-41.95 -15.67,-10.29 -32.17,-15.35 -49.46,-15.35 -26.45,0 -50.12,10.29 -71.02,30.87 -20.9,20.56 -32.98,49.12 -36.57,85.69zm490.58 -150.84l0 98.94c36.41,-65.96 73.8,-98.94 112.17,-98.94 17.31,0 31.67,5.4 43.09,16.17 11.43,10.62 17.15,23.02 17.15,37.06 0,12.58 -4.08,23.19 -12.26,31.84 -8.32,8.65 -18.12,12.9 -29.38,12.9 -11.1,0 -23.52,-5.55 -37.22,-16.65 -13.88,-11.11 -24.17,-16.66 -30.7,-16.66 -5.72,0 -11.93,3.26 -18.61,9.63 -14.21,13.07 -29.08,34.78 -44.25,64.81l0 209.62c0,24.33 3.11,42.94 9.15,55.34 4.08,8.65 11.43,15.83 21.88,21.39 10.61,5.72 25.63,8.5 45.38,8.5l0 17.62 -224.32 0 0 -17.62c22.22,0 38.7,-3.43 49.48,-10.45 7.99,-5.23 13.54,-13.23 16.64,-24.51 1.64,-5.38 2.45,-20.89 2.45,-46.36l0 -169.45c0,-50.94 -0.97,-81.14 -3.1,-90.94 -2.13,-9.63 -5.88,-16.82 -11.43,-21.22 -5.55,-4.41 -12.57,-6.7 -20.73,-6.7 -9.96,0 -21.07,2.46 -33.48,7.19l-4.73 -17.64 132.73 -53.87 20.07 0zm612.2 147.1l0 189.86c0,40.83 4.42,66.12 13.39,75.91 12.09,14.04 30.38,21.08 54.86,21.08l24.82 0 0 17.62 -278.2 0 0 -17.62 24.49 0c27.44,0 47.19,-8.99 58.94,-26.79 6.37,-9.79 9.62,-33.31 9.62,-70.2l0 -420.21c0,-40.83 -4.24,-66.12 -12.89,-75.92 -12.56,-14.04 -31.02,-21.06 -55.67,-21.06l-24.49 0 0 -17.64 238.02 0c58.13,0 103.84,6.05 137.46,17.96 33.48,11.93 61.72,32.18 84.74,60.58 23.02,28.41 34.45,62.03 34.45,100.89 0,53.05 -17.47,96.15 -52.4,129.29 -34.95,33.15 -84.25,49.78 -148.08,49.78 -15.67,0 -32.49,-1.14 -50.6,-3.43 -18.29,-2.11 -37.72,-5.54 -58.45,-10.11zm0 -27.43c16.82,3.26 31.84,5.72 44.9,7.18 12.9,1.63 24.16,2.44 33.31,2.44 33.14,0 61.54,-12.89 85.55,-38.52 24,-25.63 36.08,-58.77 36.08,-99.44 0,-28.07 -5.72,-54.19 -17.15,-78.18 -11.42,-24.01 -27.76,-41.96 -48.65,-53.88 -21.06,-11.92 -44.88,-17.96 -71.5,-17.96 -16.32,0 -37.06,3.1 -62.53,9.15l0 269.21zm622.18 268.22c-44.9,34.78 -73.14,55.02 -84.73,60.4 -17.15,8.01 -35.44,12.09 -54.85,12.09 -30.37,0 -55.34,-10.45 -74.94,-31.19 -19.59,-20.73 -29.39,-47.98 -29.39,-81.79 0,-21.38 4.73,-40 14.37,-55.5 13.06,-21.72 35.76,-42.12 68.07,-61.38 32.49,-19.1 86.21,-42.44 161.47,-69.88l0 -17.13c0,-43.59 -6.86,-73.47 -20.74,-89.8 -13.88,-16.16 -33.97,-24.33 -60.4,-24.33 -19.93,0 -35.92,5.39 -47.66,16.33 -12.09,10.78 -18.14,23.18 -18.14,37.22l0.99 27.76c0,14.71 -3.75,26.13 -11.26,34.13 -7.51,8 -17.49,11.92 -29.56,11.92 -11.92,0 -21.72,-4.08 -29.23,-12.41 -7.51,-8.33 -11.26,-19.76 -11.26,-34.13 0,-27.43 14.04,-52.73 42.11,-75.74 28.09,-23.03 67.59,-34.46 118.37,-34.46 39.02,0 70.85,6.54 95.83,19.6 18.77,9.79 32.65,25.31 41.64,46.36 5.7,13.54 8.64,41.63 8.64,83.91l0 148.56c0,41.64 0.83,67.26 2.46,76.57 1.64,9.46 4.24,15.67 7.83,18.94 3.76,3.1 8,4.74 12.74,4.74 5.22,0 9.64,-1.15 13.56,-3.28 6.68,-4.24 19.58,-15.83 38.86,-34.93l0 26.77c-35.92,48.16 -70.21,72.17 -102.87,72.17 -15.67,0 -28.25,-5.4 -37.55,-16.17 -9.31,-10.94 -14.04,-29.39 -14.36,-55.35zm0 -31.19l0 -166.67c-48.49,19.1 -79.68,32.65 -93.88,40.65 -25.31,14.04 -43.42,28.57 -54.36,43.92 -10.94,15.34 -16.32,31.99 -16.32,50.11 0,23.02 6.85,41.96 20.73,57.14 13.71,15.18 29.72,22.69 47.67,22.69 24.33,0 56.32,-16 96.16,-47.84zm316.22 -356.71l0 98.94c36.41,-65.96 73.8,-98.94 112.17,-98.94 17.31,0 31.67,5.4 43.09,16.17 11.43,10.62 17.15,23.02 17.15,37.06 0,12.58 -4.08,23.19 -12.26,31.84 -8.32,8.65 -18.12,12.9 -29.38,12.9 -11.1,0 -23.52,-5.55 -37.22,-16.65 -13.88,-11.11 -24.17,-16.66 -30.7,-16.66 -5.72,0 -11.93,3.26 -18.61,9.63 -14.21,13.07 -29.08,34.78 -44.25,64.81l0 209.62c0,24.33 3.11,42.94 9.15,55.34 4.08,8.65 11.43,15.83 21.88,21.39 10.61,5.72 25.63,8.5 45.38,8.5l0 17.62 -224.32 0 0 -17.62c22.22,0 38.7,-3.43 49.48,-10.45 7.99,-5.23 13.54,-13.23 16.64,-24.51 1.64,-5.38 2.45,-20.89 2.45,-46.36l0 -169.45c0,-50.94 -0.97,-81.14 -3.1,-90.94 -2.13,-9.63 -5.88,-16.82 -11.43,-21.22 -5.55,-4.41 -12.57,-6.7 -20.73,-6.7 -9.96,0 -21.07,2.46 -33.48,7.19l-4.73 -17.64 132.73 -53.87 20.07 0zm325.21 -131.25l0 143.99 102.36 0 0 32.33 -102.36 0.98 0 284.23c0,28.41 4.08,47.67 12.24,57.46 8.01,9.96 18.46,14.87 31.18,14.87 10.62,0 20.74,-3.27 30.69,-9.97 9.8,-6.53 17.49,-16.33 22.87,-29.22l18.61 0c-11.1,31.5 -26.94,55.17 -47.34,71.18 -20.57,15.83 -41.63,23.83 -63.34,23.83 -14.69,0 -29.06,-4.08 -43.09,-12.24 -14.04,-8.16 -24.33,-19.93 -31.03,-35.11 -6.69,-15.18 -10.12,-38.53 -10.12,-70.2l0 -295.81 -69.54 0 0 -15.18c17.63,-7.02 35.59,-18.78 54.03,-35.28 18.45,-16.65 34.78,-36.41 49.3,-59.41 7.35,-12.09 17.63,-34.29 30.85,-66.45l14.71 0zm272.15 223.17c51.25,-61.22 100.07,-91.92 146.43,-91.92 23.83,0 44.4,6.05 61.54,17.96 17.31,11.93 30.86,31.68 41.15,59.1 7.02,19.26 10.45,48.64 10.45,88.16l0 187.41c0,27.6 2.28,46.2 6.7,56.16 3.43,7.85 9.14,14.04 16.81,18.46 7.83,4.41 22.2,6.7 43.09,6.7l0 17.62 -216.47 0 0 -17.62 9.15 0c20.23,0 34.45,-3.12 42.6,-9.31 8,-6.21 13.72,-15.36 16.82,-27.27 1.3,-4.74 1.95,-19.77 1.95,-44.74l0 -180.4c0,-40 -5.22,-69.21 -15.5,-87.33 -10.29,-18.12 -27.6,-27.11 -52.08,-27.11 -37.71,0 -75.26,20.74 -112.64,62.37l0 232.46c0,29.56 1.79,47.68 5.22,54.7 4.57,9.13 10.77,15.83 18.61,20.25 7.83,4.24 23.68,6.37 47.67,6.37l0 17.62 -217.46 0 0 -17.62 9.64 0c22.36,0 37.38,-5.56 45.22,-16.82 7.83,-11.28 11.75,-32.83 11.75,-64.5l0 -162.59c0,-52.57 -1.14,-84.57 -3.59,-95.99 -2.46,-11.6 -6.05,-19.44 -10.94,-23.52 -4.91,-4.08 -11.59,-6.21 -19.76,-6.21 -8.98,0 -19.59,2.46 -32,7.19l-7.19 -17.64 132.24 -53.87 20.58 0 0 91.92zm434.9 86.36c-0.33,64.82 15.51,115.59 47.34,152.48 31.84,36.74 69.38,55.18 112.49,55.18 28.57,0 53.54,-7.84 74.77,-23.52 21.22,-15.5 39.02,-42.76 53.38,-81.3l14.69 9.64c-6.7,44.08 -26.12,84.08 -58.28,119.83 -32.16,35.76 -72.49,53.71 -120.81,53.71 -52.57,0 -97.63,-20.41 -135.01,-61.38 -37.39,-40.99 -56.16,-95.99 -56.16,-165.05 0,-74.77 19.27,-133.21 57.63,-175.01 38.37,-41.96 86.52,-62.86 144.48,-62.86 48.96,0 89.3,16.17 120.81,48.49 31.52,32.33 47.34,75.58 47.34,129.78l-302.67 0zm0 -27.44l202.77 0c-1.63,-28.07 -4.9,-47.82 -9.97,-59.25 -7.99,-17.79 -19.91,-31.84 -35.75,-41.95 -15.67,-10.29 -32.17,-15.35 -49.46,-15.35 -26.45,0 -50.12,10.29 -71.02,30.87 -20.9,20.56 -32.98,49.12 -36.57,85.69zm490.58 -150.84l0 98.94c36.42,-65.96 73.8,-98.94 112.17,-98.94 17.31,0 31.67,5.4 43.09,16.17 11.43,10.62 17.15,23.02 17.15,37.06 0,12.58 -4.08,23.19 -12.26,31.84 -8.32,8.65 -18.12,12.9 -29.38,12.9 -11.1,0 -23.52,-5.55 -37.22,-16.65 -13.88,-11.11 -24.17,-16.66 -30.7,-16.66 -5.72,0 -11.92,3.26 -18.61,9.63 -14.21,13.07 -29.08,34.78 -44.25,64.81l0 209.62c0,24.33 3.11,42.94 9.15,55.34 4.08,8.65 11.43,15.83 21.88,21.39 10.61,5.72 25.63,8.5 45.38,8.5l0 17.62 -224.31 0 0 -17.62c22.21,0 38.7,-3.43 49.47,-10.45 7.99,-5.23 13.54,-13.23 16.64,-24.51 1.64,-5.38 2.45,-20.89 2.45,-46.36l0 -169.45c0,-50.94 -0.97,-81.14 -3.1,-90.94 -2.13,-9.63 -5.88,-16.82 -11.43,-21.22 -5.55,-4.41 -12.57,-6.7 -20.73,-6.7 -9.96,0 -21.07,2.46 -33.47,7.19l-4.74 -17.64 132.73 -53.87 20.07 0zm479.96 0l0 148.89 -15.67 0c-12.07,-46.68 -27.59,-78.36 -46.52,-95.18 -18.77,-16.82 -42.93,-25.31 -72.15,-25.31 -22.2,0 -40.17,5.88 -53.88,17.64 -13.54,11.75 -20.4,24.82 -20.4,39.18 0,17.8 5.05,33.14 15.02,45.87 9.8,13.07 29.87,26.95 60.07,41.64l69.88 33.79c64.64,31.68 96.97,73.31 96.97,124.91 0,39.84 -15.02,71.99 -45.22,96.32 -30.04,24.33 -63.83,36.57 -101.05,36.57 -26.78,0 -57.46,-4.73 -91.76,-14.04 -10.61,-3.11 -19.27,-4.57 -25.95,-4.57 -7.2,0 -13.07,3.92 -17.15,11.75l-15.68 0 0 -156.72 15.68 0c8.98,44.72 25.96,78.52 51.26,101.21 25.14,22.71 53.38,33.97 84.73,33.97 21.87,0 39.83,-6.37 53.7,-19.26 13.88,-12.9 20.9,-28.59 20.9,-46.7 0,-21.87 -7.83,-40.32 -23.35,-55.33 -15.51,-15.02 -46.36,-33.8 -92.73,-56.65 -46.2,-22.86 -76.4,-43.43 -90.76,-62.04 -14.21,-18.12 -21.39,-41.14 -21.39,-68.89 0,-36.08 12.4,-66.28 37.06,-90.61 24.65,-24.33 56.48,-36.41 95.67,-36.41 17.3,0 38.04,3.76 62.69,11.27 16.16,4.9 26.93,7.34 32.32,7.34 5.22,0 9.14,-1.14 12.08,-3.42 2.78,-2.28 6.21,-7.35 9.96,-15.19l15.67 0zm626.08 0l0 148.89 -15.68 0c-12.07,-46.68 -27.58,-78.36 -46.52,-95.18 -18.77,-16.82 -42.93,-25.31 -72.15,-25.31 -22.2,0 -40.16,5.88 -53.87,17.64 -13.55,11.75 -20.41,24.82 -20.41,39.18 0,17.8 5.05,33.14 15.02,45.87 9.8,13.07 29.88,26.95 60.07,41.64l69.88 33.79c64.64,31.68 96.97,73.31 96.97,124.91 0,39.84 -15.02,71.99 -45.21,96.32 -30.05,24.33 -63.83,36.57 -101.06,36.57 -26.77,0 -57.46,-4.73 -91.76,-14.04 -10.61,-3.11 -19.26,-4.57 -25.95,-4.57 -7.19,0 -13.07,3.92 -17.15,11.75l-15.67 0 0 -156.72 15.67 0c8.99,44.72 25.96,78.52 51.27,101.21 25.14,22.71 53.38,33.97 84.72,33.97 21.87,0 39.83,-6.37 53.7,-19.26 13.88,-12.9 20.9,-28.59 20.9,-46.7 0,-21.87 -7.83,-40.32 -23.34,-55.33 -15.52,-15.02 -46.36,-33.8 -92.73,-56.65 -46.21,-22.86 -76.41,-43.43 -90.77,-62.04 -14.21,-18.12 -21.39,-41.14 -21.39,-68.89 0,-36.08 12.4,-66.28 37.07,-90.61 24.64,-24.33 56.47,-36.41 95.67,-36.41 17.29,0 38.03,3.76 62.68,11.27 16.17,4.9 26.94,7.34 32.32,7.34 5.23,0 9.15,-1.14 12.09,-3.42 2.77,-2.28 6.2,-7.35 9.95,-15.19l15.68 0zm190.19 358.52c14.87,0 27.43,5.23 37.72,15.5 10.13,10.29 15.18,22.7 15.18,37.4 0,14.53 -5.22,27.1 -15.5,37.39 -10.29,10.29 -22.71,15.51 -37.4,15.51 -14.53,0 -27.1,-5.22 -37.38,-15.51 -10.29,-10.29 -15.51,-22.86 -15.51,-37.39 0,-14.86 5.22,-27.44 15.51,-37.71 10.28,-10.14 22.85,-15.19 37.38,-15.19zm282.11 -358.52l0 98.94c36.41,-65.96 73.8,-98.94 112.17,-98.94 17.31,0 31.66,5.4 43.09,16.17 11.43,10.62 17.15,23.02 17.15,37.06 0,12.58 -4.09,23.19 -12.26,31.84 -8.32,8.65 -18.12,12.9 -29.38,12.9 -11.1,0 -23.52,-5.55 -37.23,-16.65 -13.88,-11.11 -24.17,-16.66 -30.69,-16.66 -5.72,0 -11.93,3.26 -18.62,9.63 -14.21,13.07 -29.07,34.78 -44.24,64.81l0 209.62c0,24.33 3.11,42.94 9.14,55.34 4.09,8.65 11.44,15.83 21.89,21.39 10.61,5.72 25.63,8.5 45.37,8.5l0 17.62 -224.31 0 0 -17.62c22.22,0 38.7,-3.43 49.47,-10.45 7.99,-5.23 13.55,-13.23 16.65,-24.51 1.63,-5.38 2.44,-20.89 2.44,-46.36l0 -169.45c0,-50.94 -0.97,-81.14 -3.09,-90.94 -2.13,-9.63 -5.88,-16.82 -11.44,-21.22 -5.54,-4.41 -12.56,-6.7 -20.72,-6.7 -9.96,0 -21.08,2.46 -33.48,7.19l-4.73 -17.64 132.72 -53.87 20.08 0zm234.92 358.52c14.86,0 27.43,5.23 37.72,15.5 10.13,10.29 15.18,22.7 15.18,37.4 0,14.53 -5.23,27.1 -15.5,37.39 -10.29,10.29 -22.71,15.51 -37.4,15.51 -14.53,0 -27.11,-5.22 -37.38,-15.51 -10.29,-10.29 -15.52,-22.86 -15.52,-37.39 0,-14.86 5.23,-27.44 15.52,-37.71 10.27,-10.14 22.85,-15.19 37.38,-15.19zm368.8 -358.52c66.44,0 119.67,25.15 159.82,75.59 34.13,42.94 51.27,92.4 51.27,148.23 0,39.19 -9.48,78.85 -28.26,119.03 -18.77,40.16 -44.72,70.52 -77.7,90.92 -33.15,20.42 -69.87,30.54 -110.36,30.54 -66.12,0 -118.7,-26.28 -157.55,-78.85 -32.81,-44.41 -49.3,-94.04 -49.3,-149.21 0,-40.18 9.96,-80.17 29.89,-119.84 19.91,-39.67 46.19,-69.06 78.85,-88 32.49,-18.93 66.93,-28.41 103.34,-28.41zm-14.86 31.35c-16.82,0 -33.8,5.06 -50.94,15.02 -16.97,10.13 -30.85,27.6 -41.3,52.73 -10.61,25.15 -15.84,57.46 -15.84,96.97 0,63.67 12.74,118.54 38.04,164.73 25.31,46.2 58.78,69.22 100.24,69.22 30.86,0 56.32,-12.73 76.41,-38.2 20.09,-25.48 30.2,-69.22 30.2,-131.25 0,-77.71 -16.81,-138.78 -50.28,-183.34 -22.52,-30.54 -51.41,-45.88 -86.52,-45.88zm380.7 327.17c14.86,0 27.43,5.23 37.72,15.5 10.13,10.29 15.18,22.7 15.18,37.4 0,14.53 -5.23,27.1 -15.5,37.39 -10.29,10.29 -22.71,15.51 -37.4,15.51 -14.53,0 -27.11,-5.22 -37.38,-15.51 -10.29,-10.29 -15.52,-22.86 -15.52,-37.39 0,-14.86 5.23,-27.44 15.52,-37.71 10.27,-10.14 22.85,-15.19 37.38,-15.19z"/>
  </g>
 </g>
</svg>
