<svg width="116" height="116" viewBox="0 0 116 116" fill="none" xmlns="http://www.w3.org/2000/svg">
<g clip-path="url(#clip0_105_14)">
<path d="M58.0065 0C74.0238 0 88.5256 6.49363 99.0227 16.9903C109.519 27.4873 116.013 41.9892 116.013 58.0065C116.013 74.0238 109.519 88.5257 99.0227 99.0227C88.5256 109.519 74.0238 116.013 58.0065 116.013C41.9892 116.013 27.4873 109.519 16.9903 99.0227C6.49364 88.5257 0 74.0238 0 58.0065C0 41.9892 6.49364 27.4873 16.9903 16.9903C27.4873 6.49363 41.9892 0 58.0065 0V0ZM96.3589 19.654C86.5442 9.84005 72.9839 3.76864 58.0065 3.76864C43.029 3.76864 29.4687 9.84005 19.654 19.654C9.84005 29.4687 3.76865 43.029 3.76865 58.0065C3.76865 72.9839 9.84005 86.5442 19.654 96.3589C29.4687 106.173 43.029 112.244 58.0065 112.244C72.9839 112.244 86.5442 106.173 96.3589 96.3589C106.173 86.5442 112.244 72.9839 112.244 58.0065C112.244 43.029 106.173 29.4687 96.3589 19.654V19.654Z" fill="white"/>
<path d="M91.2695 36.4979V37.8085C90.0191 37.8085 89 38.0394 88.2111 38.4885C87.4347 38.9372 86.6817 39.7748 85.9783 41.0124C85.5047 41.8379 84.7524 43.8281 83.7334 46.959L70.3352 85.8672H68.9034L57.9074 54.993L47.046 85.8672H45.7472L31.4509 45.8186C30.3831 42.809 29.7038 41.0373 29.4249 40.4911C28.9512 39.5805 28.3083 38.9134 27.4835 38.4768C26.6696 38.0277 25.5655 37.8088 24.1578 37.8088V36.4983H41.9733V37.8088H41.1114C39.8614 37.8088 38.9028 38.1003 38.2352 38.6707C37.5677 39.2411 37.24 39.9332 37.24 40.7338C37.24 41.5714 37.762 43.4886 38.8056 46.4979L48.3078 73.5731L56.3296 50.5636L54.8732 46.5104L53.7324 43.2577C53.2346 42.056 52.6763 41.0124 52.07 40.1022C51.7544 39.6531 51.3782 39.2649 50.9288 38.9496C50.3342 38.5244 49.7392 38.2088 49.1454 38.0269C48.696 37.881 47.98 37.8081 47.0093 37.8081V36.4976H65.7595V37.8081H64.4728C63.1498 37.8081 62.1792 38.0995 61.56 38.6699C60.9412 39.2403 60.6381 40.0175 60.6381 40.9999C60.6381 42.214 61.1718 44.3493 62.2396 47.3839L71.4991 73.5849L80.6614 47.0074C81.7058 44.0462 82.2274 41.9956 82.2274 40.8548C82.2274 40.3085 82.0577 39.7862 81.7179 39.3129C81.3656 38.8396 80.9411 38.4998 80.4187 38.3055C79.5089 37.9778 78.3439 37.8077 76.8995 37.8077V36.4972H91.2684L91.2695 36.4979Z" fill="white"/>
</g>
<defs>
<clipPath id="clip0_105_14">
<rect width="116" height="116" fill="white"/>
</clipPath>
</defs>
</svg>
