<svg width="341" height="283" viewBox="0 0 341 283" fill="none" xmlns="http://www.w3.org/2000/svg">
<g clip-path="url(#clip0_105_2)">
<path d="M181.313 236.23C185.813 233.632 191.34 233.18 196.216 235.179C202.234 237.648 207.465 243.344 213.086 247.23C210.129 246.253 207.117 244.132 204.547 242.003C201.652 239.604 198.995 237.401 194.684 238.751C191.426 239.771 189.484 244.61 192.591 246.578C193.008 246.843 193.482 247.011 193.962 247.073C196.367 247.386 198.053 244.605 196.731 243.039C195.719 241.844 193.483 242.594 192.98 243.74C192.935 242.478 194.09 240.993 195.268 240.625C199.537 239.287 202.232 242.925 205.648 245.371C207.944 247.016 210.505 248.526 212.92 249.231C210.632 251.221 211.651 254.197 213.661 254.24C214.997 254.268 216.45 252.758 215.386 251.893C214.966 251.552 214.349 251.615 214.008 252.035C213.759 252.34 213.701 252.315 213.638 252.185C213.54 251.981 213.544 251.661 213.722 251.281C214.072 250.537 215.654 249.742 216.404 249.61C216.565 249.592 216.726 249.567 216.883 249.537C217.727 249.974 218.596 250.371 219.497 250.721C220.122 250.99 220.139 251.072 220.74 251.165C221.989 251.573 223.298 251.885 224.682 252.08C225.235 252.205 224.915 252.227 225.529 252.183C226.309 252.264 227.113 252.308 227.943 252.31C235.602 252.333 242.566 247.272 241.854 239.037C241.509 235.037 238.921 232.532 234.813 232.634C228.616 232.788 226.575 240.569 230.351 244.345C232.343 246.338 235.473 245.041 235.512 242.975C235.55 241.003 234.1 239.893 232.295 240.726C231.503 241.091 231.533 242.599 232.045 243.196C231.942 243.134 231.839 243.055 231.74 242.956C229.133 240.347 230.454 234.701 234.859 234.591C238.488 234.501 239.952 236.86 239.942 240.217C239.924 246.765 233.979 250.37 227.942 250.352C226.967 250.35 226.028 250.283 225.12 250.16C223.987 249.752 222.839 248.699 222.032 247.033C221.241 245.4 220.796 243.196 221.013 240.44C221.179 238.34 220.576 235.683 219.025 234.553C216.608 232.794 213.411 235.364 215.102 237.694C215.42 238.132 216.033 238.23 216.473 237.912C216.484 237.904 219.465 235.105 219.056 240.287C218.779 243.794 219.46 246.905 221.01 249.174C220.695 249.065 220.383 248.949 220.075 248.827C218.739 248.15 217.384 247.116 216.252 245.61C215.105 244.084 214.185 242.067 213.739 239.436C213.398 237.43 212.382 234.899 210.779 233.899C208.068 232.208 205.422 234.928 207.538 237.13C207.986 237.597 208.596 237.427 208.94 237.034C209.128 236.821 210.317 235.878 210.928 237.063C211.319 237.82 211.633 238.753 211.804 239.759C212.172 241.927 212.835 243.739 213.682 245.243C206.586 240.205 200.586 232.879 191.595 232.054C181.551 231.133 172.219 238.203 171.383 248.691C170.716 257.055 174.985 262.853 183.094 264.285C183.453 265.983 183.219 268.04 182.426 269.619C180.344 273.764 175.368 274.141 173.01 277.064C171.71 278.675 171.351 281.498 173.302 282.54C175.554 283.743 178.654 281.469 176.746 279.289C175.898 278.319 174.424 279.609 175.272 280.579C175.272 280.579 175.634 280.691 174.96 280.862C173.488 281.237 173.716 279.31 174.536 278.292C176.471 275.895 181.775 275.274 184.176 270.494C185.091 268.673 185.387 266.48 185.126 264.547C188.622 264.901 193.624 264.286 195.52 261.16C197.901 257.231 195.196 255.335 193.333 256.053C191.691 256.688 191.682 258.886 193.042 258.886C193.585 258.886 194.025 258.445 194.025 257.902C194.025 257.746 195.252 257.828 193.847 260.146C192.303 262.692 187.477 262.856 184.613 262.528C183.782 260.347 182.154 258.573 180.106 257.257C178.615 256.299 177.307 254.983 176.334 253.415C178.71 254.911 182.28 255.001 183.393 252.053C184.064 250.276 183.193 248.323 181.008 248.421C179.503 248.489 178.609 249.716 179.254 251.193C179.759 252.352 181.57 251.641 181.038 250.383C181.766 250.326 181.743 250.874 181.559 251.362C180.819 253.319 177.629 252.398 176.466 250.968C175.635 249.946 175.071 248.208 174.986 246.27C174.78 241.557 177.29 238.552 181.313 236.229L181.313 236.23ZM158.844 236.23C154.344 233.632 148.817 233.18 143.941 235.179C137.923 237.648 132.692 243.344 127.071 247.23C130.028 246.253 133.041 244.132 135.61 242.003C138.505 239.604 141.162 237.401 145.473 238.751C148.731 239.771 150.673 244.61 147.566 246.578C147.149 246.843 146.675 247.011 146.195 247.073C143.79 247.386 142.104 244.605 143.426 243.039C144.438 241.844 146.674 242.594 147.177 243.74C147.222 242.478 146.067 240.993 144.889 240.625C140.619 239.287 137.925 242.925 134.509 245.371C132.213 247.016 129.652 248.526 127.237 249.231C129.525 251.221 128.506 254.197 126.496 254.24C125.16 254.268 123.706 252.758 124.772 251.893C125.191 251.552 125.808 251.615 126.149 252.035C126.398 252.34 126.456 252.315 126.519 252.185C126.617 251.981 126.613 251.661 126.435 251.281C126.085 250.537 124.503 249.742 123.753 249.61C123.592 249.592 123.432 249.567 123.274 249.537C122.431 249.974 121.562 250.371 120.66 250.721C120.035 250.99 120.019 251.072 119.418 251.165C118.168 251.573 116.859 251.885 115.475 252.08C114.922 252.205 115.243 252.227 114.628 252.183C113.848 252.264 113.044 252.308 112.214 252.31C104.555 252.333 97.5916 247.272 98.303 239.037C98.6481 235.037 101.236 232.532 105.344 232.634C111.541 232.788 113.582 240.569 109.806 244.345C107.814 246.338 104.684 245.041 104.645 242.975C104.607 241.003 106.058 239.893 107.863 240.726C108.654 241.091 108.625 242.599 108.112 243.196C108.215 243.134 108.318 243.055 108.417 242.956C111.024 240.347 109.703 234.701 105.299 234.591C101.669 234.501 100.205 236.86 100.215 240.217C100.233 246.765 106.178 250.37 112.214 250.352C113.19 250.35 114.129 250.283 115.037 250.16C116.17 249.752 117.319 248.699 118.125 247.033C118.916 245.4 119.361 243.196 119.144 240.44C118.978 238.34 119.581 235.683 121.132 234.553C123.549 232.794 126.746 235.364 125.055 237.694C124.737 238.132 124.124 238.23 123.684 237.912C123.673 237.904 120.692 235.105 121.101 240.287C121.378 243.794 120.697 246.905 119.147 249.174C119.462 249.065 119.774 248.949 120.082 248.827C121.418 248.15 122.773 247.116 123.905 245.61C125.052 244.084 125.972 242.067 126.418 239.436C126.759 237.43 127.775 234.899 129.378 233.899C132.089 232.208 134.735 234.928 132.619 237.13C132.171 237.597 131.562 237.427 131.217 237.034C131.029 236.821 129.84 235.878 129.23 237.063C128.838 237.82 128.524 238.753 128.353 239.759C127.985 241.927 127.321 243.739 126.475 245.243C133.571 240.205 139.571 232.879 148.562 232.054C158.606 231.133 167.938 238.203 168.774 248.691C169.441 257.055 165.172 262.853 157.063 264.285C156.704 265.983 156.938 268.04 157.731 269.619C159.813 273.764 164.789 274.141 167.147 277.064C168.447 278.675 168.806 281.498 166.855 282.54C164.603 283.743 161.503 281.469 163.411 279.289C164.259 278.319 165.733 279.609 164.885 280.579C164.885 280.579 164.523 280.691 165.197 280.862C166.669 281.237 166.441 279.31 165.621 278.292C163.686 275.895 158.382 275.274 155.981 270.494C155.066 268.673 154.77 266.48 155.031 264.547C151.535 264.901 146.533 264.286 144.637 261.16C142.255 257.231 144.962 255.335 146.824 256.053C148.466 256.688 148.475 258.886 147.115 258.886C146.572 258.886 146.132 258.445 146.132 257.902C146.132 257.746 144.905 257.828 146.311 260.146C147.854 262.692 152.68 262.856 155.544 262.528C156.375 260.347 158.003 258.573 160.051 257.257C161.542 256.299 162.85 254.983 163.823 253.415C161.448 254.911 157.877 255.001 156.765 252.053C156.093 250.276 156.964 248.323 159.149 248.421C160.654 248.489 161.548 249.716 160.904 251.193C160.398 252.352 158.588 251.641 159.119 250.383C158.391 250.326 158.414 250.874 158.599 251.362C159.338 253.319 162.528 252.398 163.691 250.968C164.523 249.946 165.087 248.208 165.171 246.27C165.377 241.557 162.867 238.552 158.844 236.229L158.844 236.23ZM134.851 28.1707C136.875 28.8386 138.872 30.0709 140.585 31.2987C143.075 33.0809 145.572 36.2962 149.014 35.2189C149.627 35.0268 150.244 34.4126 150.549 33.7424C149.691 34.3283 148.359 34.4137 147.678 33.6082C146.34 32.0255 148.128 29.5652 150.209 29.835C150.65 29.8925 151.078 30.0467 151.454 30.2849C154.353 32.1216 152.359 36.4103 149.65 37.2585C146.044 38.388 143.83 36.6851 141.196 34.5026C139.691 33.2559 137.94 31.9496 136.113 31.0174C140.055 34.0648 143.939 37.9352 148.394 39.7624C152.36 41.3886 156.889 41.0408 160.591 38.9025C163.794 37.0537 165.908 34.6326 165.738 30.7642C165.685 29.5387 165.354 27.9711 164.561 26.997C163.925 26.2142 162.029 25.389 161.123 26.0785C161.625 25.7765 162.357 25.8479 162.664 26.5499C163.257 27.9114 162.448 29.1456 160.983 29.2113C159.043 29.2994 158.103 27.5561 158.749 25.8449C159.615 23.5531 162.104 23.3134 164.094 24.1235C163.398 23.2159 162.548 22.427 161.587 21.8094C159.926 20.7415 158.532 19.2821 157.789 17.439C155.642 17.2167 151.711 17.304 150.488 19.3203C150.453 19.3777 149.964 20.2808 149.945 20.672C150.1 20.2732 150.489 19.9897 150.943 19.9897C152.41 19.9897 152.368 22.2271 150.791 22.8353C149.883 23.1853 148.817 22.8708 148.257 22.0694C147.434 20.8909 147.995 19.3184 148.664 18.2154C150.272 15.563 154.356 15.0152 157.254 15.2447C157.097 13.634 157.382 11.8956 158.106 10.4551C159.063 8.55186 160.555 7.3778 162.37 6.35531C163.501 5.71763 165.361 4.91136 166.168 3.91118C166.512 3.48517 167.125 1.90363 166.073 2.17125C166.072 2.17125 166.07 2.17201 166.068 2.17238C166.689 3.19714 165.205 4.39993 164.334 3.40428C162.547 1.36233 165.404 -0.817581 167.511 0.308098C169.349 1.28976 168.952 3.86355 167.832 5.25042C165.727 7.85974 161.73 7.99393 160.014 11.4091C159.409 12.615 159.206 14.1878 159.446 15.5252C166.317 16.8104 169.794 21.834 169.242 28.7566C168.547 37.4782 160.734 43.6384 152.126 42.8499C144.913 42.1884 139.932 36.543 134.443 32.43C134.981 33.6075 135.34 34.859 135.557 36.1374C135.683 36.8813 135.916 37.6399 136.263 38.3117C136.556 38.8771 137.175 38.6636 137.507 38.2844C137.918 37.8161 138.593 37.7239 139.046 38.196C141.025 40.2549 138.525 42.8317 136.031 41.2755C134.573 40.3661 133.727 38.1227 133.45 36.4908C133.143 34.6825 132.511 32.9297 131.402 31.4548C130.578 30.3586 129.528 29.468 128.314 28.8522C128.288 28.8424 128.262 28.8322 128.236 28.8216C129.403 30.8968 129.702 33.4188 129.518 35.7594C129.355 37.8172 129.581 38.7422 131.272 37.5152C131.75 37.1686 132.419 37.2756 132.766 37.753C134.359 39.9488 131.366 42.3377 129.145 40.7206C127.701 39.6694 127.253 37.2801 127.387 35.5927C127.528 33.7987 127.354 31.8668 126.561 30.2282C126.069 29.2117 125.246 28.1632 124.153 27.7583C123.394 27.6566 122.628 27.606 121.862 27.6041C116.99 27.5901 112.129 30.4735 112.114 35.7987C112.106 38.4632 113.224 40.3063 116.093 40.2349C119.128 40.1601 120.405 36.54 119.002 34.2988C119.004 34.8462 118.801 35.3897 118.341 35.6025C116.646 36.385 115.269 35.2888 115.303 33.4956C115.345 31.2786 118.434 30.5823 120.033 32.1805C123.444 35.592 121.381 42.2391 116.143 42.3687C112.614 42.456 110.321 40.2924 110.019 36.8046C109.418 29.8411 115.384 25.4514 121.862 25.4707C122.543 25.4726 123.223 25.5077 123.877 25.5777C124.324 25.544 124.228 25.5769 124.624 25.6669C125.745 25.8245 126.857 26.083 127.923 26.4323C128.396 26.5041 128.558 26.6258 128.995 26.8137C129.716 27.093 130.425 27.4155 131.117 27.77C131.227 27.7511 131.337 27.7349 131.442 27.7235C131.99 27.6264 133.236 26.9997 133.484 26.4716C133.516 26.4036 133.551 26.3117 133.569 26.2165C133.186 26.5744 132.585 26.6043 132.167 26.2641C131.009 25.3229 132.534 23.8366 133.769 23.8627C135.907 23.908 136.241 26.5922 134.852 28.1722L134.851 28.1707ZM276.1 147.504C276.402 146.31 277.981 145.282 279.234 146.077C281.581 147.566 279.921 150.594 277.12 150.286C275.054 150.059 273.761 148.55 273.569 146.508C273.228 142.883 275.699 140.241 279.105 139.456C283.023 138.551 287.004 140.194 289.568 143.197C291.697 145.691 292.527 148.505 292.527 151.739C292.527 161.612 283.092 165.069 274.683 165.069C265.363 165.069 259.454 157.524 259.454 148.595C259.454 139.135 268.805 131.674 277.856 131.671C281.1 131.67 284.922 132.64 287.823 134.105C290.236 135.323 292.341 136.971 294.127 138.981C294.037 134.607 295.954 130.845 300.71 130.079C305 129.388 309.15 133.244 308.263 137.6C307.378 141.94 301.796 141.103 301.984 137.754C302.017 137.164 302.605 136.64 303.193 136.672C304.551 136.747 303.918 137.786 304.916 137.885C305.083 137.901 305.252 137.883 305.41 137.829C306.456 137.475 306.35 136.782 306.198 135.834C305.819 133.481 303.381 131.813 301.045 132.188C296.275 132.956 295.722 137.761 296.605 141.687C297.506 145.689 299.289 149.567 302.203 152.506C304.376 154.697 307.204 156.351 310.302 156.719C311.383 153.412 314.138 151.705 317.452 151.278C316.276 149.887 315.684 148.159 315.637 146.321C315.566 143.525 318.287 140.892 320.682 142.819C322.46 144.25 321.706 147.079 319.529 147.122C318.846 147.135 318.184 146.866 317.77 146.368C317.785 147.25 318.076 148.254 318.426 148.923C319.235 150.474 320.771 151.532 322.484 151.812C324.052 150.167 326.214 148.318 328.574 148.241C332.048 148.13 334.835 151.97 333.031 155.084C331.364 157.96 327.457 156.9 327.607 154.173C327.663 153.162 328.312 152.45 329.105 152.145C328.152 152.415 327.146 152.903 326.368 153.309C325.434 153.797 324.378 154.023 323.327 154.019C320.297 157.046 316.309 158.825 312.02 158.925C311.913 159.978 311.926 161.539 312.638 162.307C312.77 162.45 312.923 162.568 313.089 162.664C313.075 162.225 313.225 161.741 313.423 161.414C313.949 160.546 315.165 159.996 316.1 160.564C318.681 162.131 316.852 165.425 313.811 165.09C311.529 164.839 310.112 163.18 309.9 160.925C309.834 160.223 309.823 159.518 309.883 158.817C306.368 158.352 303.165 156.508 300.688 154.011C297.839 151.138 295.951 147.454 294.879 143.576C292.897 140.347 290.258 137.727 286.863 136.012C284.248 134.691 280.78 133.808 277.858 133.807C269.985 133.805 261.595 140.323 261.595 148.596C261.595 156.339 266.55 162.929 274.685 162.929C283.366 162.929 291.957 159.268 290.14 149.07C289.572 145.878 287.015 142.833 283.933 141.791C280.513 140.634 275.279 141.866 275.696 146.313C275.736 146.743 275.849 147.169 276.102 147.504H276.1ZM329.837 151.984C330.398 151.948 330.963 152.108 331.399 152.498C331.384 152.416 331.365 152.348 331.344 152.31C331.031 151.964 330.534 151.914 330.071 151.956C329.994 151.963 329.916 151.972 329.837 151.984ZM225.415 153.758C224.948 153.866 224.517 154.184 224.191 154.51C223.282 155.419 223.697 157.521 224.557 158.381C224.857 158.681 225.003 158.702 225.27 158.918C226.38 159.812 227.882 160.374 229.285 160.567C233.379 161.129 237.391 158.701 239.856 155.58C242.016 152.845 243.238 149.395 242.688 145.896C242.534 144.913 242.226 143.861 241.665 143.03C241.634 142.984 241.549 142.842 241.508 142.809C241.13 142.704 240.934 142.714 240.503 142.54C240.248 142.438 240 142.315 239.765 142.171C239.497 142.005 239.238 141.823 238.99 141.627C238.525 141.598 237.732 141.814 237.249 142.161C238.594 142.464 239.324 144.252 237.867 145.202C236.169 146.307 234.113 144.058 234.815 141.986C235.206 140.832 236.193 140.115 237.313 139.769C236.658 138.734 236.225 137.457 236.21 136.241C236.191 134.723 236.772 133.115 237.669 131.901C239.645 129.226 242.871 128.559 246.014 129.094C248.493 129.517 250.448 130.744 251.803 132.699C251.518 131.331 251.101 130.24 250.488 128.781C249.163 125.626 248.178 123.013 250.306 119.888C251.956 117.466 256.596 116.921 257.502 120.189C258.008 122.018 256.744 123.84 254.781 123.687C254.164 123.639 253.571 123.367 253.228 122.837C253.123 122.674 253.046 122.497 253.001 122.308C252.857 122.003 252.784 121.672 252.784 121.334C252.784 120.98 252.865 120.636 253.018 120.326C252.64 120.507 252.294 120.766 252.071 121.092C250.044 124.068 252.395 127.401 253.377 130.294C254.239 132.837 254.467 136.031 254.345 138.696C254.257 140.635 253.975 142.593 253.455 144.458C252.801 147.227 251.416 149.764 249.673 152.001C247.376 154.948 244.391 157.471 241.261 159.494C236.549 162.541 229.683 164.345 224.623 161.089C224.091 160.746 223.49 160.341 223.043 159.894C222.071 158.921 221.573 157.643 221.555 156.275C221.541 155.188 221.888 153.787 222.678 152.996C225.437 150.236 229.627 152.068 228.708 155.047C228.518 155.662 228.111 156.035 227.571 156.352C227.176 156.584 226.679 156.537 226.335 156.241C225.66 155.974 225.211 155.318 225.211 154.587C225.211 154.294 225.282 154.011 225.414 153.758L225.415 153.758ZM275.915 101.132C276.154 101.064 276.402 101.03 276.653 101.03C279.445 101.03 280.382 104.418 278.318 106.333C276.086 108.404 272.859 105.807 273.183 102.911C274.009 95.519 283.137 94.2845 286.986 100.604C290.014 105.573 288.816 111.158 284.246 114.674C281.017 117.159 276.811 117.898 272.83 117.444C267.207 116.803 261.781 113.815 258.324 109.32C251.807 100.849 251.074 93.5489 250.57 83.4306L250.502 82.9623C249.739 78.7548 248.58 74.1617 246.603 70.336C245.67 68.5303 243.589 65.2765 241.416 64.7148C240.786 64.5519 240.058 64.4997 239.402 64.6301C239.767 65.5736 239.076 66.6744 237.996 66.6744C236.358 66.6744 236.049 64.474 237.017 63.4844C238.17 62.3051 240.44 62.2567 241.951 62.6483C244.791 63.3846 247.257 66.948 248.501 69.3563C248.837 70.0057 249.147 70.6694 249.433 71.343C248.688 67.0732 247.437 63.1518 244.628 59.6236C238.547 51.985 228.217 50.8937 220.6 56.9583C220.393 57.1239 220.187 57.2981 219.991 57.4826C222.252 57.6444 223.152 61.0535 220.417 61.8405C219.096 62.2204 217.571 61.5623 217.006 60.296C216.142 58.3595 217.867 56.403 219.27 55.2868C227.808 48.4896 239.487 49.7351 246.3 58.2941C248.763 61.3877 250.318 65.0766 251.138 68.928C252.161 73.7286 252.458 78.435 252.701 83.3169C252.804 85.3864 252.906 87.4601 253.102 89.524C254.181 86.1046 256.342 83.1218 258.858 80.5885C259.844 79.5951 261.359 81.1003 260.373 82.0937C255.399 87.1033 253.495 91.9689 255.149 98.7966C255.218 99.0783 255.287 99.3595 255.345 99.643C255.361 99.7186 255.368 99.7953 255.367 99.872C256.508 102.82 258.088 105.513 260.014 108.016C260.252 108.327 260.501 108.629 260.759 108.922C258.623 103.459 260.219 97.9492 264.038 93.3913C264.415 92.9407 265.093 92.8802 265.544 93.2582C265.994 93.6351 266.055 94.3128 265.678 94.7634C262.85 98.1386 261.204 102.265 262.285 106.662C262.858 108.992 264.459 111.883 266.491 113.252C266.564 113.302 266.632 113.361 266.691 113.426C268.686 114.41 270.862 115.069 273.073 115.32C277.182 115.789 281.624 114.815 284.426 111.587C286.98 108.644 287.176 105.021 285.163 101.716C284.043 99.8773 282.17 98.5721 279.961 98.6485C278.223 98.7082 276.722 99.635 275.916 101.132L275.915 101.132ZM176.065 24.1231C178.055 23.3134 180.543 23.5531 181.409 25.8449C182.055 27.5561 181.114 29.2983 179.175 29.211C177.709 29.1452 176.901 27.9103 177.495 26.5506C177.801 25.8475 178.535 25.7765 179.036 26.0796C178.132 25.3883 176.233 26.215 175.597 26.997C174.804 27.9711 174.473 29.5379 174.42 30.7638C174.25 34.6334 176.364 37.0537 179.567 38.9032C183.269 41.0404 187.799 41.3886 191.764 39.7624C196.22 37.9352 200.103 34.0648 204.045 31.0174C202.218 31.9492 200.466 33.2559 198.962 34.5026C196.328 36.6859 194.114 38.388 190.508 37.2585C187.799 36.4111 185.803 32.1219 188.703 30.2849C189.079 30.0467 189.508 29.8925 189.949 29.835C192.03 29.5652 193.817 32.0248 192.48 33.6078C191.799 34.4137 190.467 34.3283 189.609 33.7424C189.914 34.4134 190.531 35.0268 191.144 35.2189C194.586 36.2965 197.083 33.082 199.573 31.2987C201.286 30.0709 203.283 28.8386 205.307 28.1711C203.918 26.5914 204.252 23.9065 206.391 23.8608C207.626 23.8343 209.149 25.3217 207.992 26.2626C207.573 26.6032 206.971 26.5725 206.588 26.2119C206.607 26.3076 206.643 26.4017 206.675 26.4705C206.923 26.9982 208.17 27.6249 208.717 27.722C208.823 27.7334 208.933 27.7496 209.043 27.7693C209.735 27.4132 210.443 27.0912 211.164 26.8118C211.6 26.6243 211.763 26.5026 212.236 26.4308C213.302 26.0823 214.414 25.8233 215.535 25.6653C215.93 25.5754 215.835 25.5425 216.282 25.5761C216.937 25.5066 217.617 25.4711 218.297 25.4692C224.775 25.4499 230.741 29.84 230.14 36.8027C229.838 40.2909 227.546 42.4545 224.016 42.3672C218.778 42.2375 216.716 35.5904 220.126 32.179C221.725 30.5808 224.814 31.2771 224.856 33.4937C224.89 35.2884 223.513 36.3835 221.818 35.601C221.357 35.389 221.155 34.845 221.157 34.2981C219.755 36.5388 221.031 40.1582 224.066 40.233C226.934 40.3045 228.053 38.4621 228.046 35.7972C228.03 30.472 223.17 27.5886 218.297 27.6026C217.531 27.6045 216.765 27.6551 216.006 27.7572C214.912 28.1624 214.089 29.2095 213.597 30.2267C212.805 31.8653 212.632 33.7968 212.773 35.5904C212.906 37.2782 212.458 39.6675 211.014 40.7187C208.793 42.3347 205.801 39.9476 207.393 37.7522C207.74 37.274 208.409 37.1671 208.887 37.5137C210.577 38.7407 210.804 37.8172 210.641 35.7583C210.457 33.4185 210.756 30.8957 211.923 28.8209C211.897 28.8307 211.871 28.8409 211.845 28.8507C210.63 29.4661 209.58 30.3571 208.756 31.4533C207.647 32.929 207.016 34.681 206.709 36.4897C206.432 38.1215 205.586 40.3653 204.129 41.2744C201.634 42.831 199.135 40.2527 201.113 38.1937C201.566 37.7224 202.241 37.8146 202.652 38.2822C202.984 38.6613 203.603 38.8756 203.895 38.3101C204.241 37.6381 204.476 36.8798 204.602 36.1359C204.819 34.8579 205.178 33.606 205.716 32.4292C200.227 36.5415 195.247 42.1865 188.033 42.8484C179.425 43.638 171.612 37.477 170.917 28.7551C170.365 21.8321 173.844 16.8096 180.713 15.5237C180.954 14.1863 180.75 12.6134 180.145 11.4076C178.429 7.99242 174.433 7.85823 172.327 5.24891C171.207 3.8609 170.809 1.28749 172.648 0.30583C174.755 -0.819849 177.612 1.3612 175.825 3.40201C174.954 4.39879 173.47 3.19487 174.091 2.17049C174.089 2.16974 174.087 2.16936 174.086 2.16936C173.034 1.90212 173.647 3.48404 173.991 3.90966C174.798 4.90985 176.658 5.71612 177.79 6.35304C179.604 7.37591 181.097 8.54997 182.053 10.4524C182.777 11.8941 183.062 13.6329 182.905 15.2439C185.803 15.013 189.887 15.5615 191.495 18.2135C192.164 19.3165 192.725 20.889 191.901 22.0672C191.342 22.8689 190.276 23.1838 189.368 22.833C187.792 22.2244 187.75 19.9878 189.216 19.9878C189.671 19.9878 190.059 20.2713 190.214 20.6712C190.195 20.2793 189.706 19.3762 189.671 19.3184C188.448 17.3021 184.517 17.2152 182.37 17.4378C181.627 19.2802 180.233 20.7412 178.572 21.8083C177.612 22.4259 176.761 23.2148 176.066 24.1216L176.065 24.1231ZM29.8554 156.719C32.9531 156.351 35.7821 154.698 37.9556 152.506C40.8688 149.568 42.6526 145.69 43.5529 141.688C44.4367 137.761 43.8833 132.956 39.1122 132.188C36.7788 131.812 34.3385 133.478 33.9594 135.834C33.8059 136.782 33.7016 137.475 34.7482 137.829C34.9059 137.883 35.0752 137.901 35.2411 137.885C36.2398 137.785 35.6082 136.747 36.9644 136.672C37.553 136.64 38.14 137.164 38.1729 137.753C38.3615 141.104 32.78 141.94 31.8951 137.6C31.0076 133.245 35.1576 129.388 39.4479 130.079C44.2035 130.845 46.1203 134.607 46.0303 138.981C47.8168 136.971 49.9215 135.323 52.3346 134.105C55.2357 132.639 59.0573 131.669 62.3017 131.67C71.3521 131.673 80.7034 139.135 80.7034 148.595C80.7034 157.524 74.7956 165.069 65.4742 165.069C57.0652 165.069 47.6304 161.612 47.6304 151.739C47.6304 148.505 48.4605 145.691 50.5898 143.197C53.1537 140.194 57.1348 138.551 61.0528 139.456C64.4585 140.241 66.9287 142.883 66.5878 146.508C66.3958 148.55 65.103 150.058 63.0369 150.285C60.2363 150.593 58.5772 147.566 60.9235 146.077C62.1765 145.282 63.7554 146.31 64.0575 147.503C64.3103 147.169 64.423 146.743 64.463 146.313C64.8811 141.866 59.6462 140.635 56.2268 141.79C53.1443 142.832 50.5879 145.879 50.0194 149.07C48.2031 159.269 56.7931 162.929 65.4746 162.929C73.6095 162.929 78.5639 156.338 78.5639 148.595C78.5639 140.323 70.1742 133.805 62.302 133.808C59.3797 133.809 55.9124 134.691 53.297 136.011C49.9003 137.727 47.2622 140.345 45.2808 143.576C44.2073 147.454 42.3207 151.138 39.4709 154.011C36.9935 156.509 33.7919 158.352 30.2761 158.817C30.337 159.519 30.3249 160.222 30.2591 160.925C30.0471 163.179 28.6307 164.84 26.3484 165.091C23.307 165.426 21.4782 162.13 24.0596 160.564C24.994 159.996 26.2108 160.545 26.7369 161.414C26.9354 161.741 27.0839 162.226 27.07 162.664C27.2363 162.568 27.389 162.45 27.5213 162.307C28.2334 161.539 28.2455 159.978 28.1389 158.924C23.8498 158.825 19.8619 157.046 16.833 154.018C15.7822 154.023 14.7253 153.797 13.7913 153.309C13.0126 152.903 12.0056 152.413 11.05 152.144C11.8453 152.448 12.4966 153.161 12.5522 154.173C12.7026 156.9 8.79489 157.96 7.12829 155.084C5.32449 151.971 8.11184 148.13 11.5849 148.241C13.9451 148.318 16.1076 150.166 17.6756 151.812C19.3887 151.532 20.9245 150.474 21.7341 148.924C22.0834 148.255 22.3748 147.25 22.3896 146.368C21.9749 146.866 21.3134 147.135 20.63 147.122C18.4527 147.078 17.6998 144.249 19.4782 142.818C21.874 140.892 24.5922 143.526 24.5219 146.321C24.475 148.159 23.8834 149.887 22.7075 151.278C26.0214 151.705 28.7766 153.412 29.8573 156.719H29.8554ZM10.3258 151.984C10.2449 151.972 10.1651 151.962 10.0861 151.955C9.6227 151.913 9.12526 151.964 8.81341 152.311C8.79186 152.348 8.77372 152.416 8.7586 152.497C9.19519 152.107 9.76294 151.947 10.3258 151.984ZM113.821 156.241C113.477 156.537 112.979 156.585 112.585 156.353C112.045 156.035 111.638 155.663 111.448 155.047C110.53 152.067 114.719 150.238 117.479 152.997C118.269 153.787 118.615 155.189 118.601 156.276C118.584 157.643 118.085 158.922 117.113 159.894C116.665 160.342 116.064 160.747 115.532 161.09C110.473 164.346 103.608 162.542 98.8957 159.496C95.7658 157.473 92.7796 154.949 90.4837 152.002C88.7407 149.766 87.3557 147.228 86.7018 144.46C86.1802 142.593 85.8989 140.635 85.8109 138.697C85.6895 136.031 85.9171 132.837 86.7789 130.295C87.761 127.401 90.1129 124.069 88.0853 121.093C87.8626 120.766 87.5164 120.507 87.1388 120.327C87.2911 120.637 87.3724 120.981 87.3724 121.335C87.3724 121.673 87.2983 122.004 87.1547 122.309C87.1104 122.498 87.0337 122.675 86.9286 122.838C86.5858 123.368 85.9919 123.64 85.3762 123.688C83.4132 123.841 82.1484 122.019 82.655 120.191C83.5606 116.922 88.2002 117.467 89.8498 119.889C91.9787 123.014 90.9936 125.626 89.668 128.782C89.0556 130.24 88.6387 131.331 88.3533 132.699C89.7092 130.745 91.6638 129.518 94.1423 129.096C97.285 128.559 100.511 129.227 102.487 131.902C103.384 133.117 103.965 134.724 103.946 136.242C103.932 137.458 103.498 138.735 102.843 139.771C103.963 140.116 104.95 140.832 105.341 141.986C106.044 144.059 103.987 146.308 102.289 145.202C100.832 144.253 101.562 142.464 102.907 142.162C102.424 141.815 101.631 141.599 101.166 141.628C100.919 141.825 100.659 142.006 100.39 142.172C100.156 142.316 99.9083 142.439 99.6535 142.541C99.223 142.714 99.0249 142.705 98.6488 142.81C98.608 142.843 98.5222 142.985 98.4912 143.03C97.9306 143.862 97.6226 144.914 97.4676 145.897C96.9176 149.396 98.1408 152.845 100.301 155.581C102.765 158.701 106.777 161.129 110.871 160.567C112.274 160.374 113.777 159.813 114.887 158.918C115.154 158.703 115.299 158.682 115.599 158.382C116.46 157.522 116.874 155.42 115.965 154.511C115.639 154.184 115.209 153.867 114.741 153.76C114.874 154.012 114.945 154.295 114.945 154.588C114.945 155.32 114.496 155.975 113.82 156.242L113.821 156.241ZM90.7237 71.3449C91.0106 70.6709 91.321 70.006 91.6566 69.3566C92.9002 66.9503 95.3667 63.3839 98.2062 62.6487C99.7167 62.2578 101.987 62.3055 103.14 63.4848C104.107 64.4748 103.799 66.6747 102.161 66.6747C101.081 66.6747 100.39 65.5736 100.755 64.6305C100.1 64.5001 99.3708 64.5523 98.7411 64.7156C96.5664 65.2796 94.4878 68.5288 93.5542 70.3364C91.5776 74.1614 90.4179 78.7552 89.6555 82.9627L89.5875 83.431C89.084 93.5485 88.3499 100.85 81.8332 109.32C78.3753 113.815 72.951 116.803 67.3275 117.445C63.3453 117.899 59.1405 117.158 55.9108 114.674C51.3397 111.158 50.1437 105.574 53.1711 100.604C57.0206 94.2845 66.1482 95.519 66.9745 102.911C67.298 105.808 64.0711 108.405 61.8394 106.333C59.7755 104.418 60.7126 101.03 63.5033 101.03C63.7547 101.03 64.003 101.064 64.2419 101.132C63.4364 99.6343 61.9358 98.7082 60.1977 98.6485C57.9879 98.5725 56.1146 99.8777 54.9946 101.716C52.9814 105.022 53.1779 108.645 55.7324 111.587C58.5345 114.815 62.9768 115.789 67.0848 115.321C69.2958 115.069 71.4726 114.41 73.4673 113.427C73.5267 113.361 73.594 113.302 73.6673 113.252C75.6987 111.883 77.3006 108.992 77.8737 106.662C78.9551 102.264 77.3082 98.1386 74.4808 94.7634C74.1035 94.3128 74.1644 93.6347 74.6146 93.2578C75.0655 92.8802 75.7429 92.9411 76.1198 93.3913C79.939 97.9496 81.535 103.457 79.3993 108.921C79.6571 108.628 79.9058 108.326 80.1439 108.016C82.0694 105.513 83.6502 102.82 84.791 99.8728C84.7899 99.7953 84.7971 99.7186 84.8126 99.6426C84.8708 99.3595 84.9403 99.0783 85.008 98.7974C86.6614 91.9681 84.7597 87.1044 79.7856 82.0937C78.799 81.0995 80.3144 79.5955 81.3002 80.5881C83.8154 83.1218 85.9768 86.1042 87.056 89.5236C87.2518 87.4601 87.3535 85.3864 87.4571 83.3169C87.7001 78.435 87.9976 73.7286 89.0208 68.928C89.8415 65.0769 91.3947 61.3869 93.8577 58.2938C100.671 49.7351 112.35 48.4889 120.888 55.2864C122.291 56.4034 124.016 58.3592 123.152 60.296C122.587 61.5623 121.061 62.22 119.741 61.8413C117.007 61.0547 117.907 57.6444 120.167 57.4826C119.971 57.2981 119.766 57.1239 119.558 56.9583C111.941 50.8941 101.611 51.9854 95.53 59.6228C92.7199 63.1522 91.4687 67.0743 90.7248 71.3445L90.7237 71.3449ZM166.834 24.4421C166.049 21.2027 163.869 19.0001 160.515 17.9788C161.112 18.7926 161.894 19.4677 162.74 20.0113C164.453 21.1131 165.869 22.6542 166.834 24.4421ZM320.684 153.534C320.535 153.479 320.388 153.419 320.243 153.355C317.213 153.12 313.919 153.801 312.575 156.765C315.575 156.569 318.359 155.43 320.683 153.534H320.684ZM250.58 146.371C250.587 146.248 250.615 146.128 250.663 146.014C251.491 144.049 251.796 142.358 251.77 140.225C251.709 135.106 249.466 130.999 243.839 131.067C242.065 131.088 240.455 131.724 239.384 133.172C238.713 134.081 238.212 135.442 238.371 136.583C238.477 137.349 238.745 138.071 239.174 138.715C239.374 139.015 239.605 139.293 239.862 139.547C239.929 139.555 239.995 139.566 240.061 139.577C240.99 139.735 241.813 140.132 242.51 140.758C242.771 140.745 243.031 140.699 243.281 140.619C243.562 140.53 243.83 140.401 244.072 140.233C242.04 139.47 242.119 136.206 244.833 136.075C247.19 135.961 247.797 138.703 246.663 140.546C246.035 141.567 245.05 142.307 243.915 142.662C244.923 144.712 245.169 147.527 244.795 149.723C244.376 152.187 243.307 154.532 241.81 156.537C244.107 154.87 246.264 152.906 247.992 150.689C249.025 149.363 249.922 147.919 250.581 146.371H250.58ZM173.322 24.4433C174.288 22.655 175.703 21.1131 177.417 20.0113C178.263 19.4673 179.044 18.7926 179.642 17.9795C176.287 19.0001 174.107 21.2031 173.322 24.4433V24.4433ZM19.4726 153.534C21.7969 155.43 24.5816 156.569 27.5818 156.765C26.2372 153.801 22.9441 153.119 19.9137 153.355C19.7686 153.419 19.6211 153.479 19.4722 153.534H19.4726ZM98.3479 156.537C96.8499 154.533 95.7817 152.187 95.3618 149.723C94.9875 147.528 95.234 144.712 96.2417 142.663C95.1066 142.307 94.1223 141.567 93.4937 140.546C92.3597 138.703 92.9675 135.96 95.324 136.075C98.038 136.206 98.1166 139.47 96.0852 140.233C96.3272 140.401 96.5948 140.531 96.8764 140.62C97.1255 140.699 97.3856 140.745 97.6467 140.758C98.3442 140.132 99.1671 139.735 100.096 139.577C100.163 139.566 100.229 139.555 100.296 139.546C100.552 139.293 100.784 139.015 100.983 138.715C101.412 138.071 101.681 137.35 101.787 136.583C101.945 135.442 101.444 134.082 100.773 133.173C99.7027 131.724 98.092 131.088 96.3177 131.067C90.6901 130.999 88.4489 135.106 88.3873 140.226C88.3616 142.359 88.6663 144.049 89.4948 146.014C89.5425 146.128 89.5708 146.248 89.5769 146.371C90.2357 147.92 91.1335 149.364 92.1658 150.689C93.8944 152.907 96.0501 154.871 98.3483 156.537H98.3479ZM126.459 252.282C126.463 252.282 126.459 252.282 126.453 252.282H126.459ZM166.832 251.627C165.769 254.702 163.671 257.261 161.11 258.908C159.74 259.788 158.637 260.864 157.91 262.105C163.264 260.768 166.418 257.139 166.832 251.627ZM213.698 252.282C213.694 252.282 213.698 252.282 213.704 252.282H213.698ZM173.325 251.627C174.388 254.702 176.486 257.261 179.047 258.908C180.416 259.788 181.52 260.864 182.247 262.105C176.893 260.768 173.739 257.139 173.325 251.627Z" fill="white"/>
<path d="M170.079 50.8771C186.096 50.8771 200.598 57.3707 211.095 67.8673C221.592 78.3643 228.085 92.8662 228.085 108.884C228.085 124.901 221.592 139.403 211.095 149.9C200.598 160.396 186.096 166.89 170.079 166.89C154.061 166.89 139.56 160.396 129.063 149.9C118.566 139.403 112.072 124.901 112.072 108.884C112.072 92.8662 118.566 78.3643 129.063 67.8673C139.56 57.3707 154.061 50.8771 170.079 50.8771V50.8771ZM208.431 70.5311C198.616 60.7171 185.056 54.6457 170.079 54.6457C155.101 54.6457 141.541 60.7171 131.726 70.5311C121.912 80.3458 115.841 93.9061 115.841 108.884C115.841 123.861 121.912 137.421 131.726 147.236C141.541 157.05 155.101 163.121 170.079 163.121C185.056 163.121 198.616 157.05 208.431 147.236C218.245 137.421 224.317 123.861 224.317 108.884C224.317 93.9061 218.245 80.3458 208.431 70.5311V70.5311Z" fill="white"/>
<path fill-rule="evenodd" clip-rule="evenodd" d="M100.788 101.478L102.302 106.169L107.231 106.16L103.238 109.049L104.77 113.734L100.788 110.829L96.8061 113.734L98.3381 109.049L94.3449 106.16L99.274 106.169L100.788 101.478V101.478ZM239.37 101.478L237.856 106.169L232.927 106.16L236.92 109.049L235.388 113.734L239.37 110.829L243.352 113.734L241.82 109.049L245.813 106.16L240.884 106.169L239.37 101.478V101.478ZM228.491 71.5536L227.609 74.2842L224.738 74.2793L227.063 75.9626L226.172 78.6902L228.49 76.9987L230.809 78.6902L229.917 75.9626L232.242 74.2793L229.372 74.2842L228.49 71.5536H228.491ZM236.918 84.7831L235.784 88.2951L232.093 88.2887L235.083 90.4527L233.935 93.9609L236.918 91.7856L239.9 93.9609L238.752 90.4527L241.743 88.2887L238.051 88.2951L236.917 84.7831H236.918ZM111.667 71.5536L112.548 74.2842L115.419 74.2793L113.094 75.9626L113.986 78.6902L111.667 76.9987L109.348 78.6902L110.241 75.9626L107.915 74.2793L110.786 74.2842L111.667 71.5536H111.667ZM103.24 84.7831L104.373 88.2951L108.065 88.2887L105.075 90.4527L106.222 93.9609L103.24 91.7856L100.258 93.9609L101.405 90.4527L98.4149 88.2887L102.107 88.2951L103.24 84.7831H103.24Z" fill="white"/>
<path fill-rule="evenodd" clip-rule="evenodd" d="M7.86085 178.096H332.297C332.712 176.339 334.29 175.032 336.174 175.032C338.374 175.032 340.158 176.815 340.158 179.015C340.158 181.216 338.375 182.999 336.174 182.999C334.291 182.999 332.713 181.692 332.298 179.935H7.86009C7.44505 181.692 5.86766 182.999 3.98372 182.999C1.7834 182.999 0 181.216 0 179.015C0 176.815 1.78302 175.032 3.98372 175.032C5.86766 175.032 7.44619 176.339 7.86085 178.096V178.096Z" fill="white"/>
<path fill-rule="evenodd" clip-rule="evenodd" d="M7.86085 219.467H332.297C332.712 217.71 334.29 216.402 336.174 216.402C338.374 216.402 340.158 218.185 340.158 220.386C340.158 222.586 338.375 224.37 336.174 224.37C334.291 224.37 332.713 223.063 332.298 221.306H7.86009C7.44505 223.063 5.86766 224.37 3.98372 224.37C1.7834 224.37 0 222.587 0 220.386C0 218.186 1.78302 216.402 3.98372 216.402C5.86766 216.402 7.44619 217.71 7.86085 219.467V219.467Z" fill="white"/>
<path d="M203.342 87.375V88.6855C202.091 88.6855 201.072 88.9165 200.283 89.3656C199.507 89.8142 198.754 90.6519 198.051 91.8895C197.577 92.715 196.825 94.7052 195.806 97.8361L182.408 136.744H180.976L169.98 105.87L159.118 136.744H157.82L143.523 96.6957C142.455 93.6861 141.776 91.9144 141.497 91.3682C141.024 90.4576 140.381 89.7904 139.556 89.3538C138.742 88.9048 137.638 88.6859 136.23 88.6859V87.3754H154.046V88.6859H153.184C151.934 88.6859 150.975 88.9774 150.308 89.5478C149.64 90.1182 149.312 90.8103 149.312 91.6109C149.312 92.4485 149.834 94.3657 150.878 97.375L160.38 124.45L168.402 101.441L166.946 97.3874L165.805 94.1348C165.307 92.9331 164.749 91.8895 164.142 90.9792C163.827 90.5302 163.451 90.142 163.001 89.8267C162.407 89.4015 161.812 89.0858 161.218 88.904C160.768 88.7581 160.052 88.6852 159.082 88.6852V87.3746H177.832V88.6852H176.545C175.222 88.6852 174.251 88.9766 173.632 89.547C173.014 90.1174 172.71 90.8946 172.71 91.877C172.71 93.0911 173.244 95.2264 174.312 98.261L183.571 124.462L192.734 97.8845C193.778 94.9233 194.3 92.8726 194.3 91.7318C194.3 91.1856 194.13 90.6632 193.79 90.19C193.438 89.7167 193.013 89.3769 192.491 89.1826C191.581 88.8549 190.416 88.6848 188.972 88.6848V87.3743H203.341L203.342 87.375Z" fill="white"/>
<path d="M48.696 187.741V188.408C48.0606 188.408 47.5419 188.525 47.1409 188.753C46.7459 188.982 46.3633 189.408 46.005 190.037C45.7646 190.457 45.3821 191.469 44.8635 193.061L38.0504 212.845H37.3224L31.7314 197.146L26.2085 212.845H25.5481L18.2788 192.48C17.7357 190.95 17.3898 190.049 17.248 189.772C17.0073 189.309 16.6803 188.969 16.26 188.747C15.8472 188.519 15.2851 188.408 14.5695 188.408V187.741H23.629V188.408H23.1906C22.5551 188.408 22.0671 188.556 21.7277 188.846C21.3883 189.136 21.2219 189.488 21.2219 189.895C21.2219 190.321 21.4873 191.296 22.0176 192.826L26.85 206.594L30.9289 194.894L30.1881 192.833L29.6078 191.179C29.3549 190.568 29.0711 190.037 28.7626 189.575C28.6016 189.346 28.4107 189.149 28.182 188.989C27.88 188.773 27.5776 188.612 27.2752 188.52C27.0469 188.445 26.6825 188.409 26.1885 188.409V187.742H35.7231V188.409H35.0691C34.3963 188.409 33.9023 188.556 33.5878 188.847C33.2733 189.137 33.1187 189.532 33.1187 190.032C33.1187 190.649 33.3901 191.735 33.9333 193.278L38.6416 206.601L43.3012 193.086C43.8319 191.58 44.0973 190.538 44.0973 189.958C44.0973 189.68 44.0107 189.415 43.8383 189.174C43.6592 188.933 43.4433 188.761 43.1776 188.662C42.7149 188.495 42.1222 188.409 41.3885 188.409V187.742H48.6948L48.696 187.741ZM55.3548 195.221C57.8662 195.221 59.8783 196.171 61.396 198.078C62.6861 199.701 63.334 201.571 63.334 203.681C63.334 205.162 62.9756 206.661 62.2661 208.18C61.5566 209.698 60.5753 210.846 59.3287 211.617C58.0756 212.389 56.6876 212.771 55.1571 212.771C52.6578 212.771 50.6703 211.778 49.2017 209.791C47.9615 208.112 47.3382 206.236 47.3382 204.151C47.3382 202.632 47.7147 201.12 48.468 199.621C49.2206 198.121 50.214 197.01 51.4486 196.294C52.6767 195.579 53.9785 195.221 55.3548 195.221V195.221ZM54.7931 196.406C54.1573 196.406 53.5155 196.597 52.8679 196.973C52.2261 197.356 51.7014 198.017 51.3064 198.967C50.9054 199.917 50.7081 201.139 50.7081 202.632C50.7081 205.039 51.1893 207.113 52.1456 208.859C53.1023 210.605 54.3675 211.475 55.9346 211.475C57.1011 211.475 58.0635 210.994 58.8229 210.031C59.5823 209.068 59.9649 207.415 59.9649 205.07C59.9649 202.133 59.3291 199.824 58.0639 198.14C57.2126 196.985 56.1206 196.406 54.7935 196.406H54.7931ZM70.5908 195.221V198.96C71.9671 196.467 73.3804 195.221 74.8304 195.221C75.4847 195.221 76.0275 195.425 76.4592 195.832C76.8916 196.233 77.1074 196.702 77.1074 197.233C77.1074 197.708 76.9532 198.109 76.6444 198.436C76.3295 198.763 75.9595 198.924 75.5338 198.924C75.1143 198.924 74.6448 198.714 74.1266 198.294C73.6019 197.874 73.2129 197.665 72.9661 197.665C72.7503 197.665 72.5155 197.788 72.2626 198.029C71.7255 198.523 71.1638 199.343 70.5904 200.479V208.402C70.5904 209.322 70.7079 210.025 70.9359 210.494C71.0901 210.821 71.3683 211.092 71.7629 211.302C72.164 211.519 72.7321 211.624 73.4783 211.624V212.29H64.9994V211.624C65.8389 211.624 66.4623 211.494 66.8694 211.229C67.1714 211.031 67.3816 210.729 67.4987 210.302C67.5604 210.099 67.591 209.513 67.591 208.55V202.145C67.591 200.219 67.5543 199.078 67.4738 198.707C67.3937 198.343 67.2519 198.071 67.0417 197.905C66.8323 197.738 66.567 197.652 66.2581 197.652C65.882 197.652 65.4617 197.745 64.993 197.924L64.8142 197.257L69.831 195.221H70.59H70.5908ZM82.9573 186.556V203.052L87.1535 199.207C88.0486 198.387 88.5672 197.868 88.709 197.652C88.8076 197.504 88.8571 197.362 88.8571 197.214C88.8571 196.973 88.7521 196.77 88.5544 196.59C88.3571 196.418 88.0297 196.319 87.567 196.294V195.702H94.769V196.294C93.7877 196.319 92.9675 196.474 92.3132 196.751C91.6589 197.035 90.9426 197.535 90.1597 198.251L85.8952 202.157L90.1284 207.544C91.3134 209.019 92.103 209.963 92.498 210.377C93.0843 210.926 93.5904 211.284 94.0285 211.444C94.3374 211.562 94.8681 211.624 95.6207 211.624V212.29H87.5674V211.624C88.0301 211.611 88.3389 211.543 88.4996 211.42C88.6659 211.29 88.7464 211.118 88.7464 210.889C88.7464 210.611 88.5056 210.167 88.0244 209.556L82.9581 203.07V208.55C82.9581 209.623 83.0318 210.327 83.18 210.666C83.3346 211 83.5444 211.24 83.8218 211.389C84.0997 211.53 84.6984 211.611 85.6241 211.623V212.289H77.219V211.623C78.0581 211.623 78.6939 211.518 79.1135 211.315C79.3664 211.185 79.5576 210.981 79.6873 210.71C79.8665 210.315 79.9587 209.63 79.9587 208.661V193.554C79.9587 191.66 79.9156 190.5 79.8358 190.074C79.7493 189.648 79.6132 189.358 79.4155 189.198C79.2246 189.031 78.9714 188.95 78.6629 188.95C78.41 188.95 78.0271 189.055 77.527 189.259L77.2186 188.593L82.1246 186.556H82.9577L82.9573 186.556ZM99.3228 201.96C99.3099 204.41 99.9091 206.329 101.112 207.723C102.316 209.112 103.735 209.809 105.364 209.809C106.444 209.809 107.388 209.513 108.191 208.92C108.993 208.334 109.666 207.304 110.208 205.847L110.764 206.211C110.51 207.877 109.776 209.389 108.56 210.741C107.345 212.093 105.821 212.771 103.994 212.771C102.007 212.771 100.304 212 98.8903 210.451C97.4774 208.901 96.7675 206.822 96.7675 204.212C96.7675 201.386 97.4963 199.177 98.9463 197.597C100.397 196.011 102.217 195.221 104.408 195.221C106.258 195.221 107.783 195.832 108.974 197.053C110.166 198.276 110.764 199.91 110.764 201.959H99.3228V201.96ZM99.3228 200.922H106.987C106.925 199.861 106.802 199.115 106.611 198.683C106.309 198.01 105.858 197.479 105.259 197.097C104.667 196.708 104.043 196.517 103.39 196.517C102.39 196.517 101.495 196.906 100.705 197.684C99.9151 198.461 99.4585 199.54 99.3228 200.923V200.922ZM117.867 195.221V198.96C119.243 196.467 120.656 195.221 122.107 195.221C122.761 195.221 123.304 195.425 123.735 195.832C124.167 196.233 124.384 196.702 124.384 197.233C124.384 197.708 124.229 198.109 123.92 198.436C123.606 198.763 123.235 198.924 122.81 198.924C122.39 198.924 121.921 198.714 121.403 198.294C120.878 197.874 120.489 197.665 120.242 197.665C120.026 197.665 119.791 197.788 119.539 198.029C119.002 198.523 118.44 199.343 117.866 200.479V208.402C117.866 209.322 117.984 210.025 118.212 210.494C118.366 210.821 118.644 211.092 119.039 211.302C119.44 211.519 120.008 211.624 120.755 211.624V212.29H112.275V211.624C113.115 211.624 113.738 211.494 114.146 211.229C114.448 211.031 114.657 210.729 114.775 210.302C114.837 210.099 114.867 209.513 114.867 208.55V202.145C114.867 200.219 114.831 199.078 114.75 198.707C114.67 198.343 114.528 198.071 114.318 197.905C114.108 197.738 113.843 197.652 113.534 197.652C113.158 197.652 112.738 197.745 112.269 197.924L112.09 197.257L117.107 195.221H117.866H117.867ZM141.008 200.781V207.958C141.008 209.501 141.175 210.457 141.514 210.827C141.971 211.358 142.662 211.624 143.587 211.624H144.526V212.29H134.01V211.624H134.935C135.973 211.624 136.719 211.284 137.163 210.611C137.404 210.241 137.527 209.352 137.527 207.958V192.074C137.527 190.53 137.367 189.574 137.04 189.204C136.565 188.673 135.867 188.408 134.935 188.408H134.01V187.741H143.007C145.204 187.741 146.932 187.97 148.203 188.42C149.468 188.871 150.536 189.636 151.406 190.71C152.276 191.784 152.708 193.055 152.708 194.524C152.708 196.529 152.048 198.158 150.728 199.411C149.406 200.664 147.543 201.292 145.13 201.292C144.538 201.292 143.902 201.249 143.217 201.163C142.526 201.083 141.792 200.953 141.008 200.781L141.008 200.781ZM141.008 199.744C141.643 199.867 142.211 199.96 142.705 200.015C143.192 200.077 143.618 200.108 143.964 200.108C145.217 200.108 146.29 199.62 147.198 198.652C148.105 197.683 148.562 196.43 148.562 194.893C148.562 193.832 148.345 192.844 147.913 191.938C147.482 191.03 146.864 190.352 146.074 189.901C145.278 189.45 144.378 189.222 143.372 189.222C142.755 189.222 141.971 189.339 141.008 189.568V199.744H141.008ZM164.526 209.883C162.829 211.197 161.761 211.962 161.323 212.166C160.675 212.469 159.984 212.623 159.25 212.623C158.102 212.623 157.158 212.228 156.417 211.444C155.677 210.66 155.306 209.63 155.306 208.352C155.306 207.544 155.485 206.84 155.849 206.254C156.343 205.433 157.201 204.662 158.422 203.934C159.651 203.212 161.681 202.33 164.526 201.293V200.645C164.526 198.998 164.267 197.868 163.742 197.251C163.217 196.64 162.458 196.331 161.459 196.331C160.706 196.331 160.101 196.535 159.657 196.948C159.2 197.356 158.972 197.825 158.972 198.355L159.009 199.405C159.009 199.961 158.867 200.392 158.583 200.695C158.3 200.997 157.922 201.145 157.466 201.145C157.016 201.145 156.645 200.991 156.361 200.676C156.077 200.361 155.936 199.929 155.936 199.386C155.936 198.349 156.466 197.393 157.527 196.523C158.589 195.653 160.082 195.221 162.002 195.221C163.477 195.221 164.68 195.468 165.624 195.961C166.334 196.331 166.858 196.918 167.198 197.714C167.413 198.226 167.525 199.287 167.525 200.886V206.501C167.525 208.075 167.556 209.044 167.618 209.395C167.68 209.753 167.778 209.988 167.914 210.111C168.056 210.229 168.216 210.291 168.395 210.291C168.592 210.291 168.76 210.247 168.908 210.167C169.16 210.006 169.648 209.568 170.377 208.846V209.858C169.019 211.679 167.723 212.586 166.488 212.586C165.896 212.586 165.42 212.382 165.069 211.975C164.717 211.561 164.538 210.864 164.526 209.883ZM164.526 208.704V202.404C162.693 203.126 161.514 203.638 160.977 203.94C160.021 204.471 159.336 205.02 158.922 205.6C158.509 206.18 158.306 206.81 158.306 207.495C158.306 208.365 158.565 209.081 159.089 209.654C159.607 210.228 160.213 210.512 160.891 210.512C161.811 210.512 163.02 209.907 164.526 208.704V208.704ZM176.479 195.22V198.96C177.855 196.467 179.269 195.22 180.719 195.22C181.373 195.22 181.916 195.424 182.348 195.831C182.78 196.233 182.996 196.702 182.996 197.232C182.996 197.708 182.842 198.109 182.533 198.436C182.218 198.763 181.848 198.923 181.422 198.923C181.002 198.923 180.533 198.714 180.015 198.294C179.491 197.874 179.102 197.664 178.855 197.664C178.639 197.664 178.404 197.788 178.151 198.028C177.614 198.522 177.052 199.343 176.479 200.478V208.402C176.479 209.321 176.596 210.025 176.824 210.494C176.979 210.821 177.257 211.092 177.652 211.302C178.053 211.518 178.62 211.623 179.367 211.623V212.289H170.888V211.623C171.728 211.623 172.351 211.494 172.758 211.228C173.06 211.031 173.27 210.728 173.387 210.302C173.449 210.099 173.48 209.512 173.48 208.55V202.144C173.48 200.219 173.443 199.077 173.362 198.707C173.282 198.343 173.14 198.071 172.93 197.905C172.721 197.738 172.455 197.651 172.147 197.651C171.77 197.651 171.35 197.744 170.881 197.923L170.702 197.256L175.72 195.22H176.478H176.479ZM188.772 190.259V195.702H192.641V196.924L188.772 196.961V207.705C188.772 208.779 188.926 209.507 189.235 209.877C189.537 210.253 189.932 210.439 190.413 210.439C190.815 210.439 191.197 210.315 191.573 210.062C191.944 209.815 192.234 209.445 192.438 208.957H193.141C192.722 210.148 192.123 211.043 191.352 211.648C190.574 212.246 189.778 212.549 188.957 212.549C188.402 212.549 187.859 212.395 187.329 212.086C186.798 211.778 186.409 211.333 186.156 210.759C185.903 210.185 185.773 209.303 185.773 208.105V196.924H183.145V196.35C183.811 196.085 184.49 195.64 185.187 195.016C185.884 194.387 186.502 193.64 187.05 192.771C187.328 192.314 187.717 191.475 188.217 190.259H188.773H188.772ZM199.059 198.695C200.996 196.381 202.842 195.22 204.594 195.22C205.495 195.22 206.272 195.449 206.92 195.899C207.575 196.35 208.087 197.097 208.476 198.133C208.741 198.861 208.871 199.972 208.871 201.465V208.55C208.871 209.593 208.957 210.296 209.124 210.672C209.254 210.969 209.47 211.203 209.759 211.37C210.055 211.537 210.599 211.623 211.388 211.623V212.289H203.206V211.623H203.552C204.316 211.623 204.854 211.505 205.162 211.272C205.464 211.037 205.68 210.691 205.798 210.241C205.847 210.062 205.871 209.493 205.871 208.55V201.73C205.871 200.218 205.674 199.114 205.285 198.429C204.897 197.744 204.242 197.405 203.317 197.405C201.891 197.405 200.472 198.189 199.059 199.762V208.549C199.059 209.667 199.127 210.351 199.256 210.617C199.429 210.962 199.664 211.215 199.96 211.382C200.256 211.543 200.855 211.623 201.762 211.623V212.289H193.542V211.623H193.906C194.751 211.623 195.319 211.413 195.616 210.987C195.912 210.561 196.06 209.746 196.06 208.549V202.403C196.06 200.416 196.017 199.207 195.924 198.775C195.831 198.336 195.695 198.04 195.51 197.886C195.325 197.732 195.072 197.651 194.764 197.651C194.424 197.651 194.023 197.744 193.554 197.923L193.282 197.256L198.281 195.22H199.059V198.694L199.059 198.695ZM215.498 201.959C215.486 204.409 216.085 206.328 217.288 207.723C218.491 209.112 219.91 209.809 221.54 209.809C222.62 209.809 223.564 209.512 224.366 208.92C225.168 208.334 225.841 207.303 226.384 205.846L226.939 206.211C226.686 207.877 225.952 209.389 224.736 210.74C223.52 212.092 221.996 212.771 220.17 212.771C218.182 212.771 216.479 211.999 215.066 210.45C213.653 208.901 212.943 206.822 212.943 204.212C212.943 201.385 213.672 199.176 215.122 197.596C216.572 196.01 218.392 195.22 220.583 195.22C222.434 195.22 223.959 195.831 225.15 197.053C226.341 198.275 226.939 199.91 226.939 201.959H215.498V201.959ZM215.498 200.922H223.163C223.101 199.861 222.978 199.114 222.786 198.682C222.484 198.01 222.033 197.479 221.435 197.097C220.842 196.708 220.219 196.516 219.565 196.516C218.565 196.516 217.671 196.905 216.881 197.683C216.091 198.46 215.634 199.54 215.498 200.922V200.922ZM234.042 195.22V198.96C235.419 196.467 236.832 195.22 238.282 195.22C238.936 195.22 239.479 195.424 239.911 195.831C240.343 196.233 240.559 196.702 240.559 197.232C240.559 197.708 240.405 198.109 240.096 198.436C239.781 198.763 239.411 198.923 238.985 198.923C238.566 198.923 238.096 198.714 237.578 198.294C237.054 197.874 236.665 197.664 236.418 197.664C236.202 197.664 235.967 197.788 235.714 198.028C235.177 198.522 234.615 199.343 234.042 200.478V208.402C234.042 209.321 234.159 210.025 234.388 210.494C234.542 210.821 234.82 211.092 235.215 211.302C235.616 211.518 236.183 211.623 236.93 211.623V212.289H228.451V211.623C229.291 211.623 229.914 211.494 230.321 211.228C230.623 211.031 230.833 210.728 230.95 210.302C231.012 210.099 231.043 209.512 231.043 208.55V202.144C231.043 200.219 231.006 199.077 230.925 198.707C230.845 198.343 230.703 198.071 230.493 197.905C230.284 197.738 230.018 197.651 229.71 197.651C229.333 197.651 228.913 197.744 228.445 197.923L228.265 197.256L233.283 195.22H234.041H234.042ZM252.184 195.22V200.848H251.592C251.136 199.084 250.549 197.886 249.834 197.25C249.124 196.615 248.211 196.294 247.106 196.294C246.267 196.294 245.588 196.516 245.07 196.96C244.558 197.405 244.299 197.899 244.299 198.441C244.299 199.114 244.49 199.694 244.866 200.175C245.237 200.669 245.995 201.194 247.137 201.749L249.779 203.027C252.222 204.224 253.444 205.798 253.444 207.748C253.444 209.254 252.876 210.469 251.735 211.389C250.599 212.309 249.322 212.771 247.915 212.771C246.903 212.771 245.743 212.593 244.446 212.241C244.045 212.123 243.718 212.068 243.466 212.068C243.193 212.068 242.972 212.216 242.817 212.512H242.225V206.588H242.817C243.157 208.278 243.799 209.556 244.755 210.414C245.705 211.272 246.773 211.698 247.958 211.698C248.784 211.698 249.463 211.457 249.988 210.97C250.512 210.482 250.778 209.889 250.778 209.205C250.778 208.378 250.482 207.681 249.895 207.113C249.309 206.545 248.143 205.836 246.39 204.972C244.643 204.108 243.502 203.33 242.959 202.627C242.422 201.942 242.151 201.072 242.151 200.023C242.151 198.659 242.619 197.517 243.551 196.598C244.483 195.678 245.686 195.221 247.168 195.221C247.822 195.221 248.606 195.363 249.537 195.647C250.148 195.833 250.555 195.925 250.759 195.925C250.956 195.925 251.105 195.882 251.216 195.795C251.321 195.709 251.45 195.518 251.592 195.221H252.184V195.22ZM275.85 195.22V200.848H275.257C274.801 199.084 274.215 197.886 273.499 197.25C272.79 196.615 271.876 196.294 270.772 196.294C269.933 196.294 269.254 196.516 268.735 196.96C268.223 197.405 267.964 197.899 267.964 198.441C267.964 199.114 268.155 199.694 268.532 200.175C268.902 200.669 269.661 201.194 270.802 201.749L273.444 203.027C275.887 204.224 277.109 205.798 277.109 207.748C277.109 209.254 276.542 210.469 275.4 211.389C274.264 212.309 272.988 212.771 271.58 212.771C270.568 212.771 269.408 212.593 268.112 212.241C267.711 212.123 267.384 212.068 267.131 212.068C266.859 212.068 266.637 212.216 266.483 212.512H265.89V206.588H266.483C266.822 208.278 267.464 209.556 268.421 210.414C269.371 211.272 270.438 211.698 271.623 211.698C272.45 211.698 273.129 211.457 273.653 210.97C274.178 210.482 274.443 209.889 274.443 209.205C274.443 208.378 274.147 207.681 273.561 207.113C272.974 206.545 271.808 205.836 270.055 204.972C268.309 204.108 267.167 203.33 266.624 202.627C266.087 201.942 265.816 201.072 265.816 200.023C265.816 198.659 266.285 197.517 267.217 196.598C268.148 195.678 269.352 195.221 270.833 195.221C271.487 195.221 272.271 195.363 273.203 195.647C273.814 195.833 274.221 195.925 274.424 195.925C274.622 195.925 274.77 195.882 274.881 195.795C274.986 195.709 275.116 195.518 275.257 195.221H275.85V195.22ZM283.039 208.772C283.601 208.772 284.076 208.97 284.465 209.358C284.848 209.747 285.039 210.216 285.039 210.772C285.039 211.321 284.842 211.796 284.453 212.185C284.064 212.574 283.595 212.771 283.039 212.771C282.49 212.771 282.015 212.574 281.626 212.185C281.237 211.796 281.04 211.321 281.04 210.772C281.04 210.21 281.237 209.735 281.626 209.346C282.015 208.963 282.49 208.772 283.039 208.772V208.772ZM293.703 195.22V198.96C295.079 196.467 296.493 195.22 297.943 195.22C298.597 195.22 299.14 195.424 299.572 195.831C300.004 196.233 300.22 196.702 300.22 197.232C300.22 197.708 300.065 198.109 299.757 198.436C299.442 198.763 299.072 198.923 298.646 198.923C298.227 198.923 297.757 198.714 297.239 198.294C296.714 197.874 296.325 197.664 296.079 197.664C295.863 197.664 295.628 197.788 295.375 198.028C294.838 198.522 294.276 199.343 293.703 200.478V208.402C293.703 209.321 293.82 210.025 294.048 210.494C294.203 210.821 294.481 211.092 294.876 211.302C295.277 211.518 295.844 211.623 296.591 211.623V212.289H288.112V211.623C288.952 211.623 289.575 211.494 289.982 211.228C290.284 211.031 290.494 210.728 290.611 210.302C290.673 210.099 290.703 209.512 290.703 208.55V202.144C290.703 200.219 290.667 199.077 290.586 198.707C290.506 198.343 290.364 198.071 290.154 197.905C289.945 197.738 289.679 197.651 289.371 197.651C288.994 197.651 288.574 197.744 288.105 197.923L287.926 197.256L292.943 195.22H293.702H293.703ZM302.583 208.772C303.145 208.772 303.62 208.97 304.009 209.358C304.392 209.747 304.583 210.216 304.583 210.772C304.583 211.321 304.385 211.796 303.997 212.185C303.608 212.574 303.138 212.771 302.583 212.771C302.034 212.771 301.558 212.574 301.17 212.185C300.781 211.796 300.583 211.321 300.583 210.772C300.583 210.21 300.781 209.735 301.17 209.346C301.558 208.963 302.034 208.772 302.583 208.772V208.772ZM316.524 195.22C319.035 195.22 321.047 196.171 322.565 198.077C323.855 199.701 324.503 201.57 324.503 203.681C324.503 205.162 324.144 206.661 323.434 208.18C322.725 209.698 321.744 210.845 320.497 211.617C319.244 212.388 317.856 212.771 316.326 212.771C313.827 212.771 311.839 211.778 310.37 209.79C309.13 208.112 308.507 206.236 308.507 204.15C308.507 202.632 308.883 201.12 309.637 199.62C310.389 198.121 311.383 197.01 312.617 196.294C313.845 195.579 315.147 195.22 316.524 195.22V195.22ZM315.962 196.405C315.326 196.405 314.684 196.596 314.036 196.973C313.395 197.356 312.87 198.016 312.475 198.966C312.074 199.917 311.876 201.138 311.876 202.632C311.876 205.038 312.358 207.112 313.314 208.858C314.271 210.605 315.536 211.475 317.103 211.475C318.27 211.475 319.232 210.994 319.992 210.031C320.751 209.068 321.133 207.414 321.133 205.07C321.133 202.132 320.498 199.824 319.233 198.139C318.381 196.985 317.289 196.405 315.962 196.405H315.962ZM330.352 208.772C330.914 208.772 331.389 208.97 331.778 209.358C332.161 209.747 332.352 210.216 332.352 210.772C332.352 211.321 332.154 211.796 331.766 212.185C331.377 212.574 330.907 212.771 330.352 212.771C329.803 212.771 329.327 212.574 328.939 212.185C328.55 211.796 328.353 211.321 328.353 210.772C328.353 210.21 328.55 209.735 328.939 209.346C329.327 208.963 329.803 208.772 330.352 208.772Z" fill="white"/>
</g>
<defs>
<clipPath id="clip0_105_2">
<rect width="340.157" height="282.874" fill="white"/>
</clipPath>
</defs>
</svg>
